<svg width="40" height="40" viewBox="0 0 40 40" fill="none" xmlns="http://www.w3.org/2000/svg">
<path d="M35 25.0658V7.5C35 5.77698 33.598 4.375 31.875 4.375H30.625V3.125C30.625 2.09106 29.7839 1.25 28.75 1.25C27.7161 1.25 26.875 2.09106 26.875 3.125V4.375H23.75V3.125C23.75 2.09106 22.9089 1.25 21.875 1.25C20.8411 1.25 20 2.09106 20 3.125V4.375H16.25V3.125C16.25 2.09106 15.4089 1.25 14.375 1.25C13.3411 1.25 12.5 2.09106 12.5 3.125V4.375H9.375V3.125C9.375 2.09106 8.53394 1.25 7.5 1.25C6.46606 1.25 5.625 2.09106 5.625 3.125V4.375H4.375C2.65198 4.375 1.25 5.77698 1.25 7.5V32.5C1.25 34.223 2.65198 35.625 4.375 35.625H25.3897C26.6888 37.863 29.106 39.375 31.875 39.375C36.0107 39.375 39.375 36.0107 39.375 31.875C39.375 28.8554 37.5777 26.2537 35 25.0658ZM28.125 3.125C28.125 2.78015 28.4051 2.5 28.75 2.5C29.0949 2.5 29.375 2.78015 29.375 3.125V6.875C29.375 7.21985 29.0949 7.5 28.75 7.5C28.4051 7.5 28.125 7.21985 28.125 6.875V3.125ZM21.25 3.125C21.25 2.78015 21.5301 2.5 21.875 2.5C22.2199 2.5 22.5 2.78015 22.5 3.125V6.875C22.5 7.21985 22.2199 7.5 21.875 7.5C21.5301 7.5 21.25 7.21985 21.25 6.875V3.125ZM13.75 3.125C13.75 2.78015 14.0302 2.5 14.375 2.5C14.7198 2.5 15 2.78015 15 3.125V6.875C15 7.21985 14.7198 7.5 14.375 7.5C14.0302 7.5 13.75 7.21985 13.75 6.875V3.125ZM6.875 3.125C6.875 2.78015 7.15515 2.5 7.5 2.5C7.84485 2.5 8.125 2.78015 8.125 3.125V6.875C8.125 7.21985 7.84485 7.5 7.5 7.5C7.15515 7.5 6.875 7.21985 6.875 6.875V3.125ZM4.375 5.625H5.625V6.875C5.625 7.90894 6.46606 8.75 7.5 8.75C8.53394 8.75 9.375 7.90894 9.375 6.875V5.625H12.5V6.875C12.5 7.90894 13.3411 8.75 14.375 8.75C15.4089 8.75 16.25 7.90894 16.25 6.875V5.625H20V6.875C20 7.90894 20.8411 8.75 21.875 8.75C22.9089 8.75 23.75 7.90894 23.75 6.875V5.625H26.875V6.875C26.875 7.90894 27.7161 8.75 28.75 8.75C29.7839 8.75 30.625 7.90894 30.625 6.875V5.625H31.875C32.9089 5.625 33.75 6.46606 33.75 7.5V10.625H2.5V7.5C2.5 6.46606 3.34106 5.625 4.375 5.625ZM4.375 34.375C3.34106 34.375 2.5 33.5339 2.5 32.5V11.875H33.75V24.6218C33.1495 24.4664 32.5235 24.375 31.875 24.375C31.4482 24.375 31.0324 24.4191 30.625 24.4879V21.25C30.625 20.9045 30.3455 20.625 30 20.625H26.25C25.9045 20.625 25.625 20.9045 25.625 21.25V25C25.625 25.3455 25.9045 25.625 26.25 25.625H27.738C25.7136 26.9694 24.375 29.2678 24.375 31.875C24.375 32.7526 24.5343 33.5916 24.8125 34.375H4.375ZM29.375 24.375H26.875V21.875H29.375V24.375ZM31.875 38.125C28.429 38.125 25.625 35.321 25.625 31.875C25.625 28.429 28.429 25.625 31.875 25.625C35.321 25.625 38.125 28.429 38.125 31.875C38.125 35.321 35.321 38.125 31.875 38.125Z" fill="black"/>
<path d="M32.5 30.7984V26.875H31.25V30.7984C30.8779 31.0149 30.625 31.4135 30.625 31.875C30.625 31.9383 30.6345 31.999 30.6436 32.0597L28.3594 33.8867L29.1406 34.8633L31.4229 33.0375C31.5635 33.0922 31.7151 33.125 31.875 33.125C32.5653 33.125 33.125 32.5653 33.125 31.875C33.125 31.4135 32.872 31.0149 32.5 30.7984Z" fill="#B5190F"/>
<path d="M9.375 13.75H5.625C5.27954 13.75 5 14.0295 5 14.375V18.125C5 18.4705 5.27954 18.75 5.625 18.75H9.375C9.72046 18.75 10 18.4705 10 18.125V14.375C10 14.0295 9.72046 13.75 9.375 13.75ZM8.75 17.5H6.25V15H8.75V17.5Z" fill="#B5190F"/>
<path d="M16.25 13.75H12.5C12.1545 13.75 11.875 14.0295 11.875 14.375V18.125C11.875 18.4705 12.1545 18.75 12.5 18.75H16.25C16.5955 18.75 16.875 18.4705 16.875 18.125V14.375C16.875 14.0295 16.5955 13.75 16.25 13.75ZM15.625 17.5H13.125V15H15.625V17.5Z" fill="#B5190F"/>
<path d="M23.125 13.75H19.375C19.0295 13.75 18.75 14.0295 18.75 14.375V18.125C18.75 18.4705 19.0295 18.75 19.375 18.75H23.125C23.4705 18.75 23.75 18.4705 23.75 18.125V14.375C23.75 14.0295 23.4705 13.75 23.125 13.75ZM22.5 17.5H20V15H22.5V17.5Z" fill="#B5190F"/>
<path d="M26.25 18.75H30C30.3455 18.75 30.625 18.4705 30.625 18.125V14.375C30.625 14.0295 30.3455 13.75 30 13.75H26.25C25.9045 13.75 25.625 14.0295 25.625 14.375V18.125C25.625 18.4705 25.9045 18.75 26.25 18.75ZM26.875 15H29.375V17.5H26.875V15Z" fill="#B5190F"/>
<path d="M9.375 20.625H5.625C5.27954 20.625 5 20.9045 5 21.25V25C5 25.3455 5.27954 25.625 5.625 25.625H9.375C9.72046 25.625 10 25.3455 10 25V21.25C10 20.9045 9.72046 20.625 9.375 20.625ZM8.75 24.375H6.25V21.875H8.75V24.375Z" fill="black"/>
<path d="M16.25 20.625H12.5C12.1545 20.625 11.875 20.9045 11.875 21.25V25C11.875 25.3455 12.1545 25.625 12.5 25.625H16.25C16.5955 25.625 16.875 25.3455 16.875 25V21.25C16.875 20.9045 16.5955 20.625 16.25 20.625ZM15.625 24.375H13.125V21.875H15.625V24.375Z" fill="black"/>
<path d="M23.125 20.625H19.375C19.0295 20.625 18.75 20.9045 18.75 21.25V25C18.75 25.3455 19.0295 25.625 19.375 25.625H23.125C23.4705 25.625 23.75 25.3455 23.75 25V21.25C23.75 20.9045 23.4705 20.625 23.125 20.625ZM22.5 24.375H20V21.875H22.5V24.375Z" fill="black"/>
<path d="M9.375 27.5H5.625C5.27954 27.5 5 27.7795 5 28.125V31.875C5 32.2205 5.27954 32.5 5.625 32.5H9.375C9.72046 32.5 10 32.2205 10 31.875V28.125C10 27.7795 9.72046 27.5 9.375 27.5ZM8.75 31.25H6.25V28.75H8.75V31.25Z" fill="black"/>
<path d="M16.25 27.5H12.5C12.1545 27.5 11.875 27.7795 11.875 28.125V31.875C11.875 32.2205 12.1545 32.5 12.5 32.5H16.25C16.5955 32.5 16.875 32.2205 16.875 31.875V28.125C16.875 27.7795 16.5955 27.5 16.25 27.5ZM15.625 31.25H13.125V28.75H15.625V31.25Z" fill="black"/>
<path d="M23.125 27.5H19.375C19.0295 27.5 18.75 27.7795 18.75 28.125V31.875C18.75 32.2205 19.0295 32.5 19.375 32.5H23.125C23.4705 32.5 23.75 32.2205 23.75 31.875V28.125C23.75 27.7795 23.4705 27.5 23.125 27.5ZM22.5 31.25H20V28.75H22.5V31.25Z" fill="black"/>
</svg>
