<svg width="40" height="40" viewBox="0 0 40 40" fill="none" xmlns="http://www.w3.org/2000/svg">
<path d="M4.65527 4.6643V39.3135C4.65527 39.6816 4.95362 39.9799 5.32168 39.9799H30.6423C31.0101 39.9799 31.3085 39.6816 31.3085 39.3135V11.3278C31.3085 11.313 31.3013 11.3004 31.2999 11.2858C31.2966 11.2273 31.2851 11.1697 31.2659 11.1145C31.2585 11.0931 31.2533 11.0725 31.244 11.0517C31.2116 10.9792 31.1666 10.9131 31.1106 10.8565L24.4473 4.19331C24.3908 4.13705 24.3244 4.09204 24.2514 4.05992C24.2313 4.05142 24.211 4.04428 24.1902 4.03797C24.1344 4.01875 24.0765 4.00723 24.0175 4.00338C24.0063 4.00531 23.9931 3.99817 23.9791 3.99817H5.32168C4.95362 3.99817 4.65527 4.29624 4.65527 4.6643ZM29.0337 10.6614H24.6452V6.27295L29.0337 10.6614ZM5.98781 5.3307H23.3127V11.3278C23.3127 11.6956 23.611 11.9939 23.9788 11.9939H29.9759V38.6474H5.98781V5.3307Z" fill="black"/>
<path d="M32.6414 34.6492V35.9817H34.6404C35.0084 35.9817 35.3068 35.6837 35.3068 35.3156V0.666405C35.3068 0.298345 35.0084 0 34.6404 0H9.31973C8.95167 0 8.65332 0.298345 8.65332 0.666405V2.66534H9.98613V1.33254H33.974V34.6492H32.6414Z" fill="black"/>
<path d="M9.98584 13.3267H25.9776V14.6592H9.98584V13.3267Z" fill="#B5190F"/>
<path d="M9.98584 9.32849H15.3165V10.6613H9.98584V9.32849Z" fill="#B5190F"/>
<path d="M9.98584 17.3245H20.6472V18.6573H9.98584V17.3245Z" fill="#B5190F"/>
<path d="M21.9795 17.3245H25.9774V18.6573H21.9795V17.3245Z" fill="#B5190F"/>
<path d="M9.98584 21.3224H25.9776V22.6552H9.98584V21.3224Z" fill="#B5190F"/>
<path d="M9.98584 29.3186H25.9776V30.6514H9.98584V29.3186Z" fill="#B5190F"/>
<path d="M15.9824 25.3208H25.9774V26.6533H15.9824V25.3208Z" fill="#B5190F"/>
<path d="M9.98584 25.3208H14.6501V26.6533H9.98584V25.3208Z" fill="#B5190F"/>
<path d="M9.98584 33.3168H12.6512V34.6493H9.98584V33.3168Z" fill="#B5190F"/>
<path d="M13.9839 33.3168H25.9778V34.6493H13.9839V33.3168Z" fill="#B5190F"/>
</svg>
