<svg width="40" height="40" viewBox="0 0 40 40" fill="none" xmlns="http://www.w3.org/2000/svg">
<g clip-path="url(#clip0)">
<path d="M11.8482 17.3543L11.8467 17.3797C11.7482 19.1059 12.7151 20.723 14.3107 21.4982L14.3271 21.5062C14.8896 21.7753 15.3507 22.219 15.6416 22.7706L15.6481 22.7826C16.4521 24.3135 18.115 25.2415 19.8877 25.1484L19.9147 25.1469C20.5576 25.1109 21.1957 25.2768 21.7397 25.6215C23.2408 26.5604 25.1463 26.5604 26.6473 25.6215C27.1913 25.2768 27.8295 25.1109 28.4724 25.1469L28.4993 25.1484C30.2691 25.2422 31.9342 24.3135 32.74 22.7801L32.744 22.7717C33.036 22.2186 33.4982 21.7742 34.0626 21.5048L34.0757 21.4982C35.6713 20.7226 36.6386 19.1059 36.5396 17.3794L36.5382 17.3554C36.5055 16.7474 36.6742 16.1456 37.0189 15.6434C38.0113 14.1961 38.0113 12.2878 37.0193 10.8401C36.6749 10.3383 36.5055 9.73686 36.5382 9.12887L36.5396 9.10341C36.6386 7.37688 35.6713 5.76016 34.0742 4.98417L34.0597 4.97689C33.4982 4.70853 33.0382 4.26708 32.7469 3.7169L32.7386 3.70054C31.9342 2.16964 30.2691 1.24201 28.4993 1.33474L28.4721 1.33619C27.8295 1.37219 27.1913 1.20637 26.6477 0.861648H26.647C25.1459 -0.0772551 23.2405 -0.0772551 21.7394 0.861648C21.1954 1.20601 20.5572 1.37183 19.9143 1.33583L19.8874 1.33437C18.1172 1.24055 16.4525 2.16928 15.6485 3.69981L15.6423 3.71108C15.3511 4.26381 14.8896 4.70781 14.3263 4.97726L14.3111 4.98453C12.7154 5.7598 11.7482 7.37688 11.8471 9.10341L11.8485 9.12741C11.8813 9.73541 11.7125 10.3372 11.3678 10.839C10.3754 12.2867 10.3754 14.1954 11.3678 15.6426C11.7122 16.1445 11.8813 16.7463 11.8482 17.3543ZM12.5936 11.6849C13.1256 10.9103 13.3863 9.98159 13.3354 9.04341L13.334 9.01796C13.2816 7.87397 13.9238 6.81143 14.9605 6.32525L14.9732 6.31907C15.8238 5.9118 16.5201 5.24126 16.9594 4.40708L16.9667 4.39326C17.5009 3.37581 18.6198 2.75909 19.8081 2.82236L19.8343 2.82345C20.7852 2.87691 21.7288 2.63182 22.5332 2.122C23.5488 1.48673 24.8375 1.48673 25.8532 2.122C26.6575 2.63109 27.6012 2.87654 28.5517 2.82382L28.5779 2.82236C29.7721 2.75982 30.8855 3.37581 31.4182 4.39035L31.428 4.4089C31.8673 5.24198 32.5629 5.91143 33.4124 6.31834L33.4248 6.32452C34.4778 6.83652 35.1171 7.8936 35.0527 9.01832L35.0513 9.04487C35.0004 9.98304 35.2615 10.9114 35.7935 11.6859C36.4364 12.6238 36.436 13.8601 35.7927 14.7976C35.2611 15.5725 35.0004 16.5012 35.0513 17.4394L35.0527 17.4645C35.1171 18.5892 34.4778 19.6466 33.4244 20.159L33.4135 20.1641C32.5622 20.5721 31.8651 21.2433 31.4255 22.079L31.42 22.0899C30.8855 23.1073 29.7684 23.7244 28.5782 23.6608L28.5524 23.6593C27.6015 23.6062 26.6575 23.8517 25.8528 24.3611C24.8375 24.996 23.5488 24.996 22.5336 24.3611C21.8019 23.8975 20.9532 23.6517 20.087 23.6524C20.003 23.6524 19.9187 23.6546 19.8343 23.6593L19.8081 23.6604C18.6354 23.735 17.5259 23.1211 16.9656 22.0881L16.9579 22.0739C16.5194 21.2412 15.8241 20.5721 14.9751 20.1652L14.9612 20.1583C13.9078 19.6463 13.2685 18.5888 13.3332 17.4645L13.3347 17.4379C13.3852 16.4997 13.1242 15.571 12.5925 14.7968C11.95 13.859 11.9503 12.6227 12.5936 11.6856V11.6849Z" fill="#B5190F"/>
<path d="M19.3882 20.9404C19.7369 21.1583 20.1962 21.0517 20.414 20.703L29.2361 6.57001C29.3801 6.34419 29.3921 6.05838 29.267 5.82165C29.1419 5.58456 28.899 5.43329 28.6314 5.42493C28.3637 5.41656 28.1121 5.55256 27.9725 5.78129L19.1507 19.9143C18.9329 20.2634 19.0391 20.7226 19.3882 20.9404Z" fill="#B5190F"/>
<path d="M20.1784 13.2783C21.9918 13.2783 23.4674 11.5957 23.4674 9.52774C23.4674 7.45976 21.9918 5.77759 20.1784 5.77759C18.3649 5.77759 16.8896 7.45976 16.8896 9.52774C16.8896 11.5957 18.3649 13.2783 20.1784 13.2783ZM20.1784 7.26703C21.1707 7.26703 21.978 8.28121 21.978 9.52774C21.978 10.7743 21.1707 11.7888 20.1784 11.7888C19.1864 11.7888 18.3791 10.7739 18.3791 9.52774C18.3791 8.28157 19.1864 7.26703 20.1784 7.26703Z" fill="#B5190F"/>
<path d="M24.9185 16.956C24.9185 19.024 26.3937 20.7061 28.2072 20.7061C30.0206 20.7061 31.4963 19.0236 31.4963 16.956C31.4963 14.8887 30.021 13.2058 28.2075 13.2058C26.3937 13.2058 24.9185 14.8876 24.9185 16.956ZM30.0068 16.956C30.0068 18.2025 29.1995 19.2167 28.2072 19.2167C27.2152 19.2167 26.4079 18.2025 26.4079 16.956C26.4079 15.7094 27.2152 14.6953 28.2072 14.6953C29.1995 14.6953 30.0068 15.7087 30.0068 16.956Z" fill="#B5190F"/>
<path d="M39.9043 29.3224C38.9181 27.5722 36.7312 26.9057 34.9366 27.8082L29.1029 30.5646C28.2974 29.0668 26.7523 28.1133 25.052 28.0653L19.6666 27.917C18.8139 27.8926 17.9771 27.6762 17.219 27.285L16.671 27.001C13.8652 25.5384 10.5208 25.5421 7.71793 27.0104L7.75212 25.769C7.76339 25.3577 7.43939 25.0152 7.02812 25.0039L1.12271 24.8413C0.711439 24.8301 0.369259 25.1541 0.357987 25.5653L0.00126202 38.5249C-0.0100107 38.9362 0.313987 39.2787 0.725257 39.29L6.63067 39.4525H6.6514C7.05467 39.4522 7.38448 39.1311 7.39576 38.7282L7.41248 38.1082L8.94665 37.2867C9.54883 36.9627 10.2532 36.8856 10.911 37.0718L20.072 39.6431C20.088 39.6478 20.104 39.6514 20.1204 39.6551C20.7826 39.7936 21.4575 39.8631 22.1342 39.8627C23.5669 39.8634 24.9829 39.5547 26.2851 38.9569C26.3171 38.9424 26.348 38.9256 26.3774 38.9067L39.6603 30.3144C39.9915 30.1006 40.0984 29.6653 39.9043 29.3224ZM1.51071 37.8213L1.82634 26.3512L6.24304 26.4726L5.92704 37.9431L1.51071 37.8213ZM25.6138 37.626C23.996 38.3562 22.1891 38.5576 20.4502 38.202L11.3135 35.638C10.2856 35.3471 9.18447 35.4678 8.24375 35.9736L7.45975 36.3933L7.66994 28.7668C10.1539 27.1144 13.3401 26.9446 15.9859 28.3231L16.5339 28.6071C17.4917 29.1017 18.5484 29.3748 19.6259 29.4057L25.0113 29.554C26.524 29.5973 27.8087 30.6744 28.1156 32.1566L20.0938 31.9358C19.6826 31.9246 19.3404 32.2486 19.3291 32.6598C19.3179 33.0711 19.6419 33.4137 20.0531 33.4249L28.9058 33.6686H28.9269C29.3298 33.6682 29.6596 33.3471 29.6709 32.9442C29.68 32.6206 29.6556 32.2966 29.5989 31.978L35.5814 29.1508L35.5988 29.1424C36.4475 28.7126 37.4741 28.8562 38.1719 29.5024L25.6138 37.626Z" fill="#170101"/>
</g>
<defs>
<clipPath id="clip0">
<rect width="40" height="40" fill="white"/>
</clipPath>
</defs>
</svg>
