<svg width="40" height="40" viewBox="0 0 40 40" fill="none" xmlns="http://www.w3.org/2000/svg">
<g clip-path="url(#clip0)">
<path d="M0.1267 3.66935L2.79438 8.33752C2.88436 8.49526 3.03498 8.60939 3.2111 8.65356L5.69991 9.27576L14.236 17.8118L15.1792 16.8689L6.50949 8.19952C6.42417 8.11393 6.31718 8.0533 6.20004 8.02395L3.80861 7.42397L1.53736 3.44714L3.48462 1.49987L7.4631 3.77333L8.06335 6.16475C8.09243 6.28216 8.15333 6.38943 8.23865 6.47475L16.9083 15.1444L17.8512 14.2013L9.31516 5.66517L8.69296 3.17773C8.64879 3.00133 8.53467 2.85045 8.37692 2.76019L3.70848 0.0927821C3.44813 -0.0553613 3.12057 -0.0114669 2.90823 0.200049L0.240825 2.86773C0.0262913 3.0787 -0.0203465 3.40681 0.1267 3.66935Z" fill="black"/>
<path d="M27.8529 13.1433L13.1815 27.815L12.2383 26.8718L26.91 12.2004L27.8529 13.1433Z" fill="#B5190F"/>
<path d="M10.6135 28.3342C10.4928 28.1334 10.276 28.0107 10.0418 28.0107H6.04052C5.80651 28.0107 5.5895 28.1334 5.46907 28.3342L3.46831 31.6685C3.34129 31.8798 3.34129 32.144 3.46831 32.3555L5.46907 35.6898C5.5895 35.8904 5.80651 36.0133 6.04052 36.0133H10.0418C10.276 36.0133 10.4928 35.8904 10.6135 35.6898L12.614 32.3555C12.741 32.144 12.741 31.8798 12.614 31.6685L10.6135 28.3342ZM9.66454 34.6794H6.41801L4.81751 32.012L6.41801 29.3443H9.66454L11.265 32.012L9.66454 34.6794Z" fill="#B5190F"/>
<path d="M32.0491 16.0069C36.4536 16.0217 40.0365 12.4629 40.0513 8.05842C40.0535 7.38793 39.9712 6.72019 39.8063 6.07028C39.7174 5.71281 39.3556 5.49526 38.9981 5.58415C38.8807 5.6135 38.7737 5.67413 38.6881 5.75945L34.5368 9.90802L31.2431 8.81039L30.1446 5.51748L34.2959 1.36535C34.5563 1.10472 34.556 0.682513 34.2954 0.422164C34.2095 0.336295 34.1014 0.275392 33.9832 0.246312C29.7117 -0.835411 25.3725 1.75024 24.2908 6.02144C24.1264 6.66944 24.0444 7.33553 24.0466 8.0041C24.0483 8.52919 24.1023 9.05263 24.2087 9.56674L9.60371 24.1715C9.08959 24.0653 8.56615 24.0113 8.04134 24.0094C3.62145 24.0094 0.0385742 27.5923 0.0385742 32.0121C0.0385742 36.4318 3.62145 40.0146 8.04134 40.0146C12.461 40.0146 16.0438 36.4318 16.0438 32.0121C16.0422 31.4871 15.9879 30.9636 15.8817 30.4495L19.3782 26.953L20.9073 28.4822C21.168 28.7426 21.5899 28.7426 21.8505 28.4822L22.1838 28.1486C22.4763 27.8581 22.949 27.8581 23.2414 28.1486C23.5336 28.44 23.5341 28.9129 23.2428 29.2051C23.2425 29.2054 23.242 29.2059 23.2414 29.2065L22.9081 29.5398C22.6477 29.8001 22.6477 30.2224 22.9081 30.4827L30.8634 38.438C32.9558 40.5496 36.3636 40.565 38.4752 38.4726C40.5866 36.3802 40.6019 32.9721 38.5095 30.8607C38.4983 30.8492 38.4868 30.8377 38.4752 30.8262L30.5199 22.8711C30.2596 22.6108 29.8374 22.6108 29.577 22.8711L29.2437 23.2045C28.951 23.4953 28.4786 23.4953 28.1858 23.2045C27.8939 22.9131 27.8931 22.4401 28.1845 22.1483C28.185 22.1477 28.1856 22.1474 28.1858 22.1469L28.5194 21.8133C28.7798 21.5529 28.7798 21.1307 28.5194 20.8704L26.9903 19.3412L30.4867 15.8447C31.0008 15.9509 31.5243 16.0052 32.0491 16.0069ZM34.6693 38.6811C34.1848 38.6803 33.7045 38.5927 33.251 38.4224L38.4593 33.2138C39.2453 35.3045 38.1877 37.6364 36.097 38.4224C35.6408 38.5938 35.1571 38.6816 34.6693 38.6811ZM27.1143 21.3486C26.3757 22.2295 26.4915 23.5424 27.3724 24.2807C28.1466 24.9295 29.275 24.929 30.0483 24.2788L37.5323 31.7694C37.6135 31.8508 37.6895 31.9367 37.7631 32.0239L32.0612 37.7258C31.9737 37.6526 31.8878 37.5766 31.8063 37.4951L24.3166 30.0048C25.0551 29.1239 24.9393 27.8109 24.0584 27.0727C23.2842 26.4236 22.1556 26.4244 21.3822 27.0743L20.3153 26.0074L26.0471 20.2841L27.1143 21.3486ZM29.8072 14.6412L14.6787 29.7667C14.5127 29.9324 14.4461 30.173 14.5026 30.4004C15.4175 33.9934 13.2464 37.6479 9.65309 38.5626C6.06006 39.4775 2.40558 37.3064 1.49066 33.7131C0.576006 30.12 2.74713 26.4655 6.34044 25.5506C7.42737 25.2741 8.56615 25.2741 9.65309 25.5506C9.88052 25.6063 10.1206 25.5396 10.2868 25.3748L25.4117 10.249C25.5774 10.0833 25.6441 9.84273 25.587 9.61557C24.6784 6.06452 26.8205 2.44926 30.3715 1.54037C31.0425 1.36891 31.7366 1.30307 32.428 1.34614L28.9101 4.86538C28.7315 5.0437 28.669 5.30789 28.7488 5.54738L30.0824 9.54891C30.149 9.74781 30.3054 9.90418 30.5046 9.9703L34.5061 11.3041C34.7453 11.384 35.0095 11.3217 35.1881 11.1434L38.706 7.62551C38.7139 7.7528 38.718 7.87873 38.718 8.0041C38.7367 11.6685 35.7815 14.6541 32.1171 14.673C31.5506 14.6758 30.986 14.6061 30.4374 14.4656C30.2099 14.4088 29.9693 14.4752 29.8036 14.6409H29.8072V14.6412Z" fill="#170101"/>
<path d="M34.522 33.5407L33.5788 34.4839L26.9102 27.8153L27.8531 26.8721L34.522 33.5407Z" fill="#B5190F"/>
</g>
<defs>
<clipPath id="clip0">
<rect width="40" height="40" fill="white"/>
</clipPath>
</defs>
</svg>
