<svg width="40" height="40" viewBox="0 0 40 40" fill="none" xmlns="http://www.w3.org/2000/svg">
<g clip-path="url(#clip0)">
<path d="M1.65733 16.5024C0.839727 16.635 0.207257 17.2905 0.103996 18.1124C-0.0332917 19.3572 -0.0346738 20.6133 0.0999811 21.8584C0.193831 22.693 0.830184 23.3639 1.65865 23.5017L3.77996 23.849C4.18721 25.5837 4.8747 27.2403 5.81524 28.7536L4.56663 30.4976C4.06908 31.1722 4.08112 32.0955 4.59598 32.757C4.99336 33.2431 5.41622 33.708 5.86263 34.1497C6.27199 34.5597 6.72459 34.9717 7.26795 35.4283C7.92418 35.9329 8.83478 35.9435 9.50259 35.4543L11.2552 34.197C12.767 35.1374 14.422 35.8251 16.1552 36.2329L16.5032 38.3576C16.6355 39.1754 17.2911 39.8083 18.1132 39.9116C18.4932 39.9542 18.8792 39.9842 19.2678 40.0002H19.3245C19.6719 40 20.0061 39.8663 20.2578 39.6269C20.5195 39.3768 20.6672 39.0303 20.6664 38.6682V33.3256C20.6625 32.6117 20.099 32.0265 19.3858 31.9956C13.0049 31.6625 8.00204 26.3916 8.00204 20.0021C8.00204 13.6125 13.0049 8.34166 19.3858 8.00851C20.1001 7.97718 20.6639 7.39025 20.6664 6.67519V1.33526C20.6675 0.972822 20.5195 0.625984 20.2571 0.375957C19.9951 0.118955 19.6376 -0.0166873 19.2711 0.00193798C18.8831 0.0172726 18.4984 0.0452434 18.1037 0.0852581C17.2821 0.191152 16.6297 0.827834 16.5037 1.64656L16.1564 3.76918C14.4233 4.17736 12.7683 4.86524 11.2565 5.80585L9.50384 4.55118C8.82984 4.0583 7.91042 4.07298 7.25255 4.58718C6.76921 4.98285 6.30661 5.40314 5.86658 5.84653C5.41306 6.28985 4.98612 6.75956 4.58795 7.25316C4.07928 7.91025 4.06624 8.82446 4.55596 9.49583L5.81261 11.2505C4.87286 12.7637 4.18629 14.4201 3.77996 16.1545L1.65733 16.5024ZM4.98599 16.8744C5.37357 14.9915 6.11713 13.1999 7.17667 11.5958C7.3285 11.3651 7.32238 11.0648 7.16133 10.8405L5.64071 8.71719C5.50013 8.53166 5.49605 8.27643 5.6307 8.0865C5.9961 7.63363 6.38815 7.20288 6.80469 6.79648C7.20931 6.38778 7.63427 5.99967 8.07799 5.63382C8.26898 5.48824 8.53368 5.48824 8.72467 5.63382L10.8447 7.15517C11.0692 7.31582 11.3696 7.32135 11.6 7.16918C13.2027 6.10925 14.9933 5.36543 16.8753 4.97785C17.1459 4.92211 17.354 4.70518 17.3987 4.43252L17.818 1.86519C17.8481 1.63491 18.0249 1.45129 18.254 1.41252C18.6066 1.37587 18.964 1.34987 19.3333 1.33519L19.3186 6.67578C12.2211 7.03828 6.65345 12.9008 6.6574 20.0076C6.66128 27.1144 12.2354 32.9708 19.3333 33.3255L19.324 38.6681C18.9659 38.6534 18.6113 38.6254 18.2613 38.5861C18.0313 38.5525 17.8509 38.3711 17.8187 38.1407L17.3987 35.5721C17.354 35.2994 17.1459 35.0826 16.8753 35.0267C14.9933 34.6388 13.2027 33.8949 11.6 32.8348C11.3695 32.6827 11.0692 32.6886 10.8447 32.8494L8.7227 34.3721C8.54171 34.5128 8.2903 34.5196 8.10201 34.3888C7.61203 33.9761 7.18733 33.5888 6.80469 33.2067C6.39592 32.8028 6.00808 32.3783 5.64268 31.9348C5.49888 31.7427 5.49888 31.4789 5.64268 31.2868L7.16199 29.1654C7.32284 28.941 7.3287 28.6406 7.17667 28.4101C6.11707 26.8064 5.3735 25.0149 4.98599 23.1322C4.93031 22.8618 4.71372 22.6537 4.44132 22.6088L1.87465 22.1881C1.63574 22.1486 1.45232 21.9549 1.426 21.7141C1.30115 20.5675 1.30246 19.4105 1.43001 18.2642C1.46318 18.0339 1.6443 17.8531 1.87465 17.8202L4.44059 17.4002C4.71405 17.3554 4.93117 17.1461 4.98599 16.8744Z" fill="#170101"/>
<path d="M37.9996 18.0014C37.1551 18.0049 36.4038 18.5385 36.1223 19.3347H20.6665V17.3347H31.333C32.4376 17.3347 33.333 16.4393 33.333 15.3348V11.8788C34.2513 11.5542 34.8022 10.6151 34.6375 9.65506C34.4727 8.69503 33.6403 7.99326 32.6663 7.99326C31.6922 7.99326 30.8598 8.69503 30.6951 9.65506C30.5304 10.6151 31.0812 11.5542 31.9996 11.8788V15.3348C31.9996 15.7029 31.7011 16.0015 31.3329 16.0015H20.6665V14.0015H27.9997C28.3679 14.0015 28.6663 13.703 28.6663 13.3348C28.6663 12.9665 28.3679 12.6681 27.9997 12.6681H20.6665V11.3348H24.6664C25.771 11.3348 26.6664 10.4394 26.6664 9.33474V5.21224C27.5848 4.88758 28.1357 3.94848 27.9709 2.98846C27.8062 2.02843 26.9738 1.32666 25.9997 1.32666C25.0257 1.32666 24.1933 2.02843 24.0286 2.98846C23.8638 3.94848 24.4147 4.88758 25.333 5.21224V9.33487C25.333 9.70304 25.0346 10.0016 24.6664 10.0016H20.4904C20.261 9.57529 19.8033 9.32283 19.3204 9.35626C13.7025 9.71212 9.32812 14.3723 9.32812 20.0015C9.32812 25.6307 13.7025 30.2909 19.3204 30.6467H19.3984C19.8539 30.6506 20.2741 30.4022 20.4904 30.0014H24.6664C25.0345 30.0014 25.333 30.2999 25.333 30.6681V34.7908C24.4147 35.1154 23.8638 36.0545 24.0286 37.0145C24.1933 37.9746 25.0257 38.6763 25.9997 38.6763C26.9738 38.6763 27.8062 37.9746 27.9709 37.0145C28.1357 36.0545 27.5848 35.1154 26.6664 34.7908V30.6681C26.6664 29.5636 25.771 28.6681 24.6664 28.6681H20.6665V27.3348H27.9997C28.3679 27.3348 28.6663 27.0363 28.6663 26.6682C28.6663 26.3 28.3679 26.0015 27.9997 26.0015H20.6665V24.0015H31.333C31.7012 24.0015 31.9997 24.3 31.9997 24.6682V28.1241C31.0814 28.4488 30.5305 29.3879 30.6952 30.3479C30.86 31.3079 31.6924 32.0097 32.6664 32.0097C33.6405 32.0097 34.4729 31.3079 34.6376 30.3479C34.8023 29.3879 34.2515 28.4488 33.3331 28.1241V24.6682C33.3331 23.5636 32.4377 22.6682 31.3332 22.6682H20.6665V20.6681H36.1223C36.4629 21.6245 37.4671 22.1729 38.4559 21.9427C39.4447 21.7125 40.1034 20.7769 39.9866 19.7684C39.8698 18.76 39.0148 17.9996 37.9996 18.0014ZM32.6664 9.33487C33.0345 9.33487 33.333 9.63334 33.333 10.0016C33.333 10.3698 33.0345 10.6683 32.6664 10.6683C32.2982 10.6683 31.9997 10.3698 31.9997 10.0016C31.9997 9.63334 32.2981 9.33487 32.6664 9.33487ZM25.9997 2.66827C26.3679 2.66827 26.6664 2.96674 26.6664 3.33497C26.6664 3.70319 26.368 4.00159 25.9997 4.00159C25.6315 4.00159 25.3331 3.70313 25.3331 3.33497C25.3331 2.9668 25.6315 2.66827 25.9997 2.66827ZM25.9997 37.3346C25.6316 37.3346 25.3331 37.0361 25.3331 36.6679C25.3331 36.2997 25.6316 36.0012 25.9997 36.0012C26.3679 36.0012 26.6664 36.2997 26.6664 36.6679C26.6664 37.0361 26.3679 37.3346 25.9997 37.3346ZM32.6664 30.668C32.2982 30.668 31.9997 30.3695 31.9997 30.0013C31.9997 29.6331 32.2982 29.3347 32.6664 29.3347C33.0345 29.3347 33.333 29.6331 33.333 30.0013C33.333 30.3695 33.0345 30.668 32.6664 30.668ZM10.6665 20.0014C10.6721 15.1077 14.4523 11.0473 19.3331 10.6922V29.3107C14.4523 28.9556 10.6721 24.8951 10.6665 20.0014ZM37.9996 20.6681C37.6315 20.6681 37.3329 20.3696 37.3329 20.0014C37.3329 19.6331 37.6314 19.3347 37.9996 19.3347C38.3679 19.3347 38.6663 19.6332 38.6663 20.0014C38.6663 20.3695 38.3678 20.6681 37.9996 20.6681Z" fill="#B5190F"/>
</g>
<defs>
<clipPath id="clip0">
<rect width="40" height="40" fill="white"/>
</clipPath>
</defs>
</svg>
