<svg width="20" height="20" viewBox="0 0 20 20" fill="none" xmlns="http://www.w3.org/2000/svg">
<path d="M9.99731 6.66537C8.16111 6.66537 6.66262 8.16388 6.66262 10.0001C6.66262 11.8364 8.16111 13.3349 9.99731 13.3349C11.8335 13.3349 13.332 11.8364 13.332 10.0001C13.332 8.16388 11.8335 6.66537 9.99731 6.66537ZM19.9989 10.0001C19.9989 8.61919 20.0114 7.25076 19.9338 5.87233C19.8563 4.27125 19.4911 2.85029 18.3203 1.6795C17.147 0.506207 15.7286 0.143462 14.1275 0.0659101C12.7466 -0.0116423 11.3782 0.000866184 9.99981 0.000866184C8.61891 0.000866184 7.25051 -0.0116423 5.8721 0.0659101C4.27105 0.143462 2.85012 0.508709 1.67935 1.6795C0.506076 2.85279 0.143338 4.27125 0.0657868 5.87233C-0.0117642 7.25327 0.000744099 8.62169 0.000744099 10.0001C0.000744099 11.3786 -0.0117642 12.7495 0.0657868 14.1279C0.143338 15.729 0.508578 17.15 1.67935 18.3207C2.85262 19.494 4.27105 19.8568 5.8721 19.9343C7.25301 20.0119 8.62141 19.9994 9.99981 19.9994C11.3807 19.9994 12.7491 20.0119 14.1275 19.9343C15.7286 19.8568 17.1495 19.4915 18.3203 18.3207C19.4936 17.1475 19.8563 15.729 19.9338 14.1279C20.0139 12.7495 19.9989 11.3811 19.9989 10.0001ZM9.99731 15.1311C7.15795 15.1311 4.86644 12.8395 4.86644 10.0001C4.86644 7.1607 7.15795 4.86916 9.99731 4.86916C12.8367 4.86916 15.1282 7.1607 15.1282 10.0001C15.1282 12.8395 12.8367 15.1311 9.99731 15.1311ZM15.3383 5.85732C14.6754 5.85732 14.14 5.32196 14.14 4.65901C14.14 3.99607 14.6754 3.4607 15.3383 3.4607C16.0013 3.4607 16.5366 3.99607 16.5366 4.65901C16.5368 4.81643 16.5059 4.97235 16.4458 5.11782C16.3856 5.2633 16.2974 5.39547 16.1861 5.50679C16.0748 5.6181 15.9426 5.70636 15.7971 5.76651C15.6516 5.82666 15.4957 5.85752 15.3383 5.85732Z" fill="#170101"/>
</svg>
