<svg width="14" height="14" viewBox="0 0 14 14" fill="none" xmlns="http://www.w3.org/2000/svg">
<g clip-path="url(#clip0)">
<g clip-path="url(#clip1)">
<path d="M7.00004 3.73059C6.01339 3.73059 5.21071 4.49681 5.21071 5.43858C5.21071 6.38035 6.01339 7.14656 7.00004 7.14656C7.98668 7.14656 8.78936 6.38035 8.78936 5.43858C8.78936 4.49681 7.98665 3.73059 7.00004 3.73059Z" fill="#A6D914"/>
<path d="M11.187 1.65547C10.0686 0.587922 8.58166 0 7.00004 0C5.41842 0 3.93144 0.587922 2.81308 1.65547C1.69467 2.72305 1.07875 4.14241 1.07875 5.65211C1.07875 8.70625 4.10406 11.2465 5.72938 12.6113C5.95521 12.8009 6.15025 12.9647 6.30559 13.1032C6.50031 13.2769 6.75012 13.3636 7.00001 13.3636C7.24988 13.3636 7.49975 13.2768 7.69444 13.1032C7.84983 12.9647 8.04485 12.8009 8.27068 12.6113C9.89599 11.2465 12.9213 8.70628 12.9213 5.65214C12.9213 4.14241 12.3054 2.72305 11.187 1.65547ZM7.00004 7.92936C5.56118 7.92936 4.39063 6.81201 4.39063 5.43856C4.39063 4.0651 5.56118 2.94775 7.00004 2.94775C8.4389 2.94775 9.60946 4.0651 9.60946 5.43856C9.60946 6.81201 8.43887 7.92936 7.00004 7.92936Z" fill="#A6D914"/>
</g>
</g>
<defs>
<clipPath id="clip0">
<rect width="14" height="13.3636" fill="white"/>
</clipPath>
<clipPath id="clip1">
<rect width="14" height="13.3636" fill="white"/>
</clipPath>
</defs>
</svg>
