<svg width="40" height="40" viewBox="0 0 40 40" fill="none" xmlns="http://www.w3.org/2000/svg">
<g clip-path="url(#clip0)">
<path d="M33.987 13.3666C33.9866 13.3666 33.9861 13.3666 33.9857 13.3666H0.572699C0.256779 13.3662 0.000334457 13.622 3.26992e-07 13.9379C3.26992e-07 13.9384 3.26992e-07 13.9389 3.26992e-07 13.9393V29.9775C-0.000333803 30.2934 0.255442 30.5499 0.571362 30.5502C0.57178 30.5502 0.572281 30.5502 0.572699 30.5502H23.2935C23.6098 30.5502 23.8662 30.2938 23.8662 29.9775C23.8662 29.6612 23.6098 29.4048 23.2935 29.4048H1.1454V14.512H33.413V15.9441C33.4126 16.26 33.6684 16.5164 33.9843 16.5168C33.9847 16.5168 33.9852 16.5168 33.9857 16.5168C34.3016 16.5171 34.558 16.2613 34.5584 15.9454C34.5584 15.945 34.5584 15.9445 34.5584 15.9441V13.9393C34.5587 13.6234 34.3029 13.367 33.987 13.3666Z" fill="black"/>
<path d="M30.1016 10.7076L3.37119 4.6933C3.22284 4.66014 3.06739 4.68704 2.93883 4.76815C2.81044 4.84993 2.71964 4.97915 2.68623 5.12767L1.34971 11.142C1.28105 11.4509 1.47584 11.757 1.78475 11.8256C2.09365 11.8943 2.39971 11.6995 2.46838 11.3906L3.67993 5.93693L29.8503 11.825C29.8917 11.8346 29.9341 11.8393 29.9766 11.839C30.2929 11.8384 30.5488 11.5816 30.5483 11.2653C30.5478 10.9979 30.3624 10.7665 30.1016 10.7076Z" fill="black"/>
<path d="M26.8559 7.39369L10.8176 0.711099C10.5389 0.594905 10.2177 0.714273 10.0825 0.984417L8.74603 3.65745C8.59509 3.93662 8.699 4.28537 8.97825 4.43631C9.25741 4.58725 9.60616 4.48334 9.75711 4.20409C9.76304 4.19315 9.76863 4.18195 9.77381 4.17059V4.17193L10.8704 1.97737L26.4135 8.45347C26.7062 8.57559 27.0425 8.43743 27.1646 8.14473C27.2867 7.8522 27.1486 7.5159 26.8559 7.39369Z" fill="black"/>
<path d="M27.2609 16.0397H21.957C21.6407 16.0397 21.3843 16.2961 21.3843 16.6124C21.3843 16.9286 21.6407 17.1851 21.957 17.1851H27.2609C27.5772 17.1851 27.8336 16.9286 27.8336 16.6124C27.8336 16.2961 27.5772 16.0397 27.2609 16.0397Z" fill="black"/>
<path d="M16.6107 16.0778C13.3628 16.0778 10.73 18.7106 10.73 21.9584C10.7333 25.2048 13.3643 27.8358 16.6107 27.8391C19.8585 27.8391 22.4913 25.2063 22.4913 21.9584C22.4913 18.7106 19.8585 16.0778 16.6107 16.0778ZM16.6107 26.7699C13.9533 26.7699 11.7992 24.6158 11.7992 21.9584C11.8021 19.3024 13.9546 17.1499 16.6107 17.147C19.268 17.147 21.4221 19.3011 21.4221 21.9584C21.4221 24.6158 19.268 26.7699 16.6107 26.7699Z" fill="black"/>
<path d="M32.6492 17.9489C29.1074 17.9489 25.2983 18.7855 25.2983 20.6219V36.6601C25.2983 38.4965 29.1074 39.3332 32.6492 39.3332C36.191 39.3332 40 38.4965 40 36.6601V20.6219C40 18.7855 36.191 17.9489 32.6492 17.9489ZM38.6635 36.6501C38.5626 37.021 36.5585 37.9966 32.6492 37.9966C28.7399 37.9966 26.7358 37.021 26.6349 36.6601V35.6096C28.0569 36.326 30.4058 36.6601 32.6492 36.6601C34.8925 36.6601 37.2421 36.3226 38.6635 35.6089V36.6501ZM38.6635 33.9771C38.5626 34.3479 36.5585 35.3236 32.6492 35.3236C28.7399 35.3236 26.7358 34.3479 26.6349 33.9871V32.9366C28.0569 33.6529 30.4058 33.9871 32.6492 33.9871C34.8925 33.9871 37.2421 33.6496 38.6635 32.9359V33.9771ZM38.6635 31.304C38.5626 31.6749 36.5585 32.6506 32.6492 32.6506C28.7399 32.6506 26.7358 31.6749 26.6349 31.314V30.2635C28.0569 30.9799 30.4058 31.314 32.6492 31.314C34.8925 31.314 37.2421 30.9766 38.6635 30.2629V31.304ZM38.6635 28.631C38.5626 29.0019 36.5585 29.9775 32.6492 29.9775C28.7399 29.9775 26.7358 29.0019 26.6349 28.641V27.5905C28.0569 28.3069 30.4058 28.641 32.6492 28.641C34.8925 28.641 37.2421 28.3035 38.6635 27.5898V28.631ZM38.6635 25.9579C38.5626 26.3288 36.5585 27.3045 32.6492 27.3045C28.7399 27.3045 26.7358 26.3288 26.6349 25.968V24.9175C28.0569 25.6305 30.4058 25.968 32.6492 25.968C34.8925 25.968 37.2421 25.6305 38.6635 24.9168V25.9579ZM38.6635 23.2849C38.5626 23.6558 36.5585 24.6314 32.6492 24.6314C28.7399 24.6314 26.7358 23.6558 26.6349 23.2949V22.2444C28.0569 22.9575 30.4058 23.2949 32.6492 23.2949C34.8925 23.2949 37.2421 22.9575 38.6635 22.2438V23.2849ZM32.6492 21.9584C28.7459 21.9584 26.7424 20.9854 26.6349 20.6339V20.6299C26.7424 20.2577 28.7459 19.2854 32.6492 19.2854C36.5251 19.2854 38.5299 20.2437 38.6635 20.6219C38.5299 21.0001 36.5251 21.9584 32.6492 21.9584Z" fill="#B5190F"/>
<path d="M11.2648 26.7312H6.21347L3.81843 24.1116V19.7679L6.4634 17.1851H11.2648C11.5811 17.1851 11.8375 16.9286 11.8375 16.6124C11.8375 16.2961 11.5811 16.0397 11.2648 16.0397H6.23085C6.08116 16.0393 5.93723 16.0976 5.82989 16.2021L2.84477 19.1137C2.73326 19.244 2.67211 19.41 2.67236 19.5815V24.3341C2.67236 24.477 2.72574 24.6148 2.82205 24.7204L5.53719 27.6901C5.6457 27.8089 5.79923 27.8766 5.9602 27.8766H11.2648C11.5811 27.8766 11.8375 27.6201 11.8375 27.3039C11.8375 26.9876 11.5812 26.7312 11.2648 26.7312Z" fill="black"/>
<path d="M16.9449 21.2902H16.2766C16.0688 21.2902 15.9425 21.1739 15.9425 21.1231C15.9425 21.0723 16.0688 20.9561 16.2766 20.9561H17.9473C18.3163 20.9561 18.6155 20.6569 18.6155 20.2878C18.6155 19.9188 18.3163 19.6196 17.9473 19.6196H17.279C17.279 19.2505 16.9798 18.9513 16.6107 18.9513C16.2417 18.9513 15.9425 19.2505 15.9425 19.6196V19.6496C15.2013 19.7543 14.6398 20.372 14.606 21.1198C14.6538 21.996 15.4001 22.6692 16.2766 22.6267H16.9449C17.1527 22.6267 17.279 22.743 17.279 22.7938C17.279 22.8446 17.1527 22.9608 16.9449 22.9608H15.2742C14.9052 22.9608 14.606 23.2601 14.606 23.6291C14.606 23.9982 14.9052 24.2974 15.2742 24.2974H15.9425C15.9425 24.6664 16.2417 24.9656 16.6107 24.9656C16.9798 24.9656 17.279 24.6664 17.279 24.2974V24.2673C18.0202 24.1626 18.5817 23.5449 18.6155 22.7971C18.5676 21.921 17.8214 21.2478 16.9449 21.2902Z" fill="black"/>
</g>
<defs>
<clipPath id="clip0">
<rect width="40" height="40" fill="white"/>
</clipPath>
</defs>
</svg>
