<svg width="13" height="13" viewBox="0 0 13 13" fill="none" xmlns="http://www.w3.org/2000/svg">
<path d="M12.5118 10.1409L9.63245 7.52286C9.49634 7.39915 9.31748 7.33317 9.13364 7.33886C8.9498 7.34454 8.77537 7.42144 8.64716 7.55332L6.95212 9.29653C6.54412 9.21861 5.72387 8.9629 4.87953 8.12069C4.0352 7.27565 3.77949 6.45328 3.7037 6.04811L5.44549 4.35236C5.57753 4.22424 5.65455 4.04978 5.66023 3.86588C5.66592 3.68199 5.59983 3.5031 5.47595 3.36707L2.85866 0.488402C2.73473 0.351946 2.56249 0.269176 2.37852 0.257669C2.19454 0.246163 2.01333 0.306826 1.87337 0.426777L0.336283 1.74499C0.21382 1.86789 0.140726 2.03147 0.130866 2.20469C0.120241 2.38178 -0.0823418 6.57653 3.17032 9.83061C6.00791 12.6675 9.56232 12.875 10.5412 12.875C10.6843 12.875 10.7722 12.8708 10.7955 12.8694C10.9687 12.8597 11.1322 12.7862 11.2545 12.6632L12.572 11.1254C12.6925 10.9859 12.7536 10.8049 12.7423 10.6209C12.7311 10.4369 12.6484 10.2647 12.5118 10.1409Z" fill="white"/>
</svg>
