<svg width="13" height="13" viewBox="0 0 13 13" fill="none" xmlns="http://www.w3.org/2000/svg">
<path d="M12.5118 10.1409L9.63245 7.52292C9.49634 7.39921 9.31748 7.33324 9.13364 7.33892C8.9498 7.3446 8.77537 7.4215 8.64716 7.55338L6.95212 9.29659C6.54412 9.21867 5.72387 8.96296 4.87953 8.12076C4.0352 7.27571 3.77949 6.45334 3.7037 6.04817L5.44549 4.35242C5.57753 4.2243 5.65455 4.04984 5.66023 3.86594C5.66592 3.68205 5.59983 3.50316 5.47595 3.36713L2.85866 0.488463C2.73473 0.352007 2.56249 0.269237 2.37852 0.25773C2.19454 0.246224 2.01333 0.306888 1.87337 0.426838L0.336283 1.74505C0.21382 1.86795 0.140726 2.03153 0.130866 2.20475C0.120241 2.38184 -0.0823418 6.57659 3.17032 9.83067C6.00791 12.6675 9.56232 12.8751 10.5412 12.8751C10.6843 12.8751 10.7722 12.8708 10.7955 12.8694C10.9687 12.8597 11.1322 12.7863 11.2545 12.6633L12.572 11.1255C12.6925 10.986 12.7536 10.8049 12.7423 10.621C12.7311 10.437 12.6484 10.2647 12.5118 10.1409Z" fill="#B5190F"/>
</svg>
