<svg width="17" height="16" viewBox="0 0 17 16" fill="none" xmlns="http://www.w3.org/2000/svg">
<path d="M4.02 8.56C6.06 8.56 7.48 7.08 7.48 4.7C7.48 2.32 6.06 0.84 4.02 0.84C1.98 0.84 0.54 2.34 0.54 4.7C0.54 7.06 1.98 8.56 4.02 8.56ZM2.8 15H5.18L14.74 0.999999H12.36L2.8 15ZM4.02 6.92C3.16 6.92 2.56 6.18 2.56 4.7C2.56 3.22 3.16 2.48 4.02 2.48C4.9 2.48 5.48 3.2 5.48 4.7C5.48 6.2 4.9 6.92 4.02 6.92ZM13.52 15.16C15.56 15.16 17 13.66 17 11.3C17 8.94 15.56 7.44 13.52 7.44C11.5 7.44 10.06 8.94 10.06 11.3C10.06 13.66 11.5 15.16 13.52 15.16ZM13.52 13.52C12.66 13.52 12.06 12.8 12.06 11.3C12.06 9.8 12.66 9.08 13.52 9.08C14.4 9.08 14.98 9.82 14.98 11.3C14.98 12.78 14.4 13.52 13.52 13.52Z" fill="#333333"/>
</svg>
