<?xml version="1.0" encoding="UTF-8" standalone="no"?>
<svg
   xmlns:dc="http://purl.org/dc/elements/1.1/"
   xmlns:cc="http://creativecommons.org/ns#"
   xmlns:rdf="http://www.w3.org/1999/02/22-rdf-syntax-ns#"
   xmlns:svg="http://www.w3.org/2000/svg"
   xmlns="http://www.w3.org/2000/svg"
   width="87.983849"
   height="38.663795"
   viewBox="0 0 87.983849 38.663795"
   fill="none"
   version="1.1"
   id="svg138">
  <metadata
     id="metadata142">
    <rdf:RDF>
      <cc:Work
         rdf:about="">
        <dc:format>image/svg+xml</dc:format>
        <dc:type
           rdf:resource="http://purl.org/dc/dcmitype/StillImage" />
        <dc:title></dc:title>
      </cc:Work>
    </rdf:RDF>
  </metadata>
  <path
     fill-rule="evenodd"
     clip-rule="evenodd"
     d="m 31.5428,36.490745 c -12.4353,-0.9793 -21.4669,-4.7183 -22.6447,-10.2181 -0.4397,-2.035 0.2513,-4.1385 1.8864,-6.1735 -1.9658,-0.2252 -3.9064,-0.6324 -5.7966,-1.2163 -2.8306,2.7224 -4.1615,5.5918 -3.5726,8.3809 1.9041,8.8843 22.6801,13.5517 46.4222,10.4316 5.664,-0.7346 11.26,-1.9241 16.732,-3.5569 -11.407,1.8646 -21.569,3.2514 -33.0267,2.3504 z m 15.3107,-18.3013 c -9.5199,-1.7628 -22.181,0.3526 -31.1223,-0.0509 -5.4257,-0.2351 -10.7257,-1.1106 -15.7312,-5.7623 2.6386,1.105 5.3673,1.9824 8.1561,2.6226 C 15.1815,8.7939452 27.028,3.5663452 40.9635,1.2297452 c 16.697,-2.791 31.947,-0.67380001 40.17,4.7575 -7.752,-4.5401 -21.214,-6.22060001 -35.923,-3.7488 -13.5636,2.27 -24.9881,7.5309 -31.2558,13.6848998 2.3292,0.2169 4.6695,0.2902 7.0078,0.2193 9.0826,-0.2193 18.316,-0.8578 25.899,2.0507 z"
     fill="url(#paint0_radial)"
     id="path95"
     style="fill:url(#paint0_radial)" />
  <path
     fill-rule="evenodd"
     clip-rule="evenodd"
     d="m 62.0085,14.321145 c -5.459,0.9597 -14.053,0.3917 -21.467,-1.1752 8.694,3.3453 15.9,3.4785 24.955,2.3699 7.683,-0.6052 18.059,-1.1947 21.482,4.64 -0.893,-8.945 -18.685,-6.3714 -22.595,-7.3311 -1.667,-0.4191 -6.319,-8.5238998 -18.941,-7.1782998 -9.3691,0.993 -16.5633,5.9012998 -25.5616,8.8763998 6.9254,-0.2683 13.9175,-1.4787 23.4556,1.044 -6.4779,-3.1338 -12.5199,-2.4561 -16.3104,-2.4718 17.9274,-8.1380998 31.3074,-6.2538998 34.9804,1.2261 z"
     fill="#ff0000"
     id="path97" />
  <path
     fill-rule="evenodd"
     clip-rule="evenodd"
     d="m 32.116,12.180245 c 4.1792,-1.3103 11.8285,-3.2766998 17.7945,-2.8732998 3.47,0.2351 7.801,1.1418998 9.098,3.9329998 -8.356,0.7736 -17.743,-2.6559 -26.8925,-1.0597 z"
     fill="#c0c0c0"
     id="path99" />
  <path
     fill-rule="evenodd"
     clip-rule="evenodd"
     d="m 62.3785,18.138445 c 8.341,-1.9586 19.21,-2.2524 22.276,1.5983 -3.117,-1.2124 -9.116,-2.9771 -22.276,-1.5983 z"
     fill="#ff0000"
     id="path101" />
  <path
     d="m 18.1731,28.734745 h -2.0375 l -0.2925,-2.3934 H 15.266 l -0.4063,2.3934 h -2.0376 l 1.2936,-7.6387 h 4.3951 c 0.126,-0.0078 0.2518,0.0184 0.3641,0.076 0.1123,0.0576 0.2069,0.1443 0.2738,0.2511 0.1424,0.2667 0.1802,0.5767 0.106,0.8697 l -0.4789,2.8596 c -0.0401,0.2806 -0.1516,0.5463 -0.3239,0.7717 -0.1451,0.19 -0.3485,0.3275 -0.5791,0.3917 z m -2.1749,-6.6946 -0.5673,3.3473 h 1.2661 l 0.5673,-3.3473 z"
     fill="#ffffff"
     id="path103" />
  <path
     d="m 19.8926,28.734645 c -0.1268,0.0079 -0.2535,-0.0183 -0.3667,-0.0759 -0.1132,-0.0575 -0.209,-0.1443 -0.2772,-0.2512 -0.1449,-0.2658 -0.1842,-0.5763 -0.1099,-0.8697 l 0.8853,-5.2549 c 0.0481,-0.3254 0.1939,-0.6286 0.4181,-0.8697 0.0944,-0.1032 0.2093,-0.1856 0.3374,-0.2419 0.1281,-0.0564 0.2666,-0.0854 0.4066,-0.0852 h 3.3763 l -0.161,0.9539 h -2.2947 l -0.4063,2.3934 h 1.7804 l -0.159,0.9539 h -1.7824 l -0.4063,2.3934 h 2.2947 l -0.159,0.9539 z"
     fill="#ffffff"
     id="path105" />
  <path
     d="m 29.4522,27.537945 c -0.0471,0.3253 -0.1922,0.6286 -0.4162,0.8696 -0.0944,0.1031 -0.2094,0.1853 -0.3375,0.2417 -0.128,0.0563 -0.2665,0.0854 -0.4064,0.0854 H 23.897 l 1.2936,-7.6386 h 4.3951 c 0.1265,-0.0077 0.2528,0.0185 0.3657,0.076 0.1129,0.0576 0.2083,0.1443 0.2762,0.2511 0.1464,0.2653 0.1864,0.5761 0.1119,0.8696 z m -2.383,-5.4978 -0.9815,5.7407 h 1.2759 l 0.9815,-5.7407 z"
     fill="#ffffff"
     id="path107" />
  <path
     d="m 37.0725,28.734745 h -2.0337 l 0.4083,-2.3935 h -1.2759 l -0.4083,2.3935 h -2.0415 l 1.0895,-6.4517 c 0.0475,-0.3252 0.1926,-0.6283 0.4161,-0.8697 0.0947,-0.1028 0.2096,-0.185 0.3377,-0.2413 0.128,-0.0562 0.2664,-0.0855 0.4063,-0.0858 h 3.4391 c 0.1265,-0.0077 0.2528,0.0186 0.3657,0.0761 0.1129,0.0575 0.2083,0.1442 0.2762,0.251 0.1465,0.2653 0.1865,0.5761 0.1115,0.8697 z m -2.1789,-6.6946 -0.5673,3.3473 h 1.2759 l 0.5673,-3.3473 z"
     fill="#ffffff"
     id="path109" />
  <path
     d="m 40.7495,22.615945 -0.903,5.2765 h 1.018 l 0.905,-5.2765 h 1.879 l -0.834,4.922 c -0.047,0.3253 -0.193,0.6286 -0.416,0.8697 -0.095,0.103 -0.21,0.1853 -0.338,0.2416 -0.128,0.0563 -0.266,0.0854 -0.406,0.0855 h -2.886 c -0.127,0.0081 -0.253,-0.0179 -0.366,-0.0755 -0.113,-0.0576 -0.208,-0.1445 -0.276,-0.2516 -0.1465,-0.2652 -0.1865,-0.5761 -0.1118,-0.8697 l 0.8418,-4.922 z"
     fill="#ffffff"
     id="path111" />
  <path
     d="m 44.9425,28.734645 c -0.127,0.0079 -0.254,-0.0183 -0.367,-0.0759 -0.113,-0.0575 -0.209,-0.1443 -0.277,-0.2512 -0.145,-0.2658 -0.185,-0.5763 -0.11,-0.8697 l 0.691,-4.0798 h -0.913 l 0.141,-0.8422 h 0.913 l 0.257,-1.5297 h 1.889 l -0.258,1.5297 h 0.921 l -0.141,0.8422 h -0.921 l -0.754,4.4343 h 0.921 l -0.141,0.8423 z"
     fill="#ffffff"
     id="path113" />
  <path
     d="m 48.4065,23.569645 c 0.035,-0.2583 0.151,-0.499 0.332,-0.6875 0.074,-0.0823 0.165,-0.1484 0.267,-0.1943 0.101,-0.0458 0.21,-0.0703 0.322,-0.072 h 3.262 c 0.1,-0.0055 0.199,0.0165 0.288,0.0634 0.088,0.047 0.162,0.1172 0.213,0.2029 0.114,0.2103 0.146,0.4548 0.092,0.6875 l -0.664,3.9682 c -0.047,0.3255 -0.193,0.6287 -0.418,0.8696 -0.094,0.1032 -0.209,0.1856 -0.337,0.242 -0.128,0.0563 -0.267,0.0853 -0.407,0.0851 h -2.871 c -0.127,0.0077 -0.253,-0.0185 -0.366,-0.076 -0.113,-0.0576 -0.208,-0.1443 -0.276,-0.2511 -0.148,-0.2649 -0.187,-0.5765 -0.11,-0.8696 z m 1.914,-0.1116 -0.756,4.4343 h 1.019 l 0.748,-4.4343 z"
     fill="#ffffff"
     id="path115" />
  <path
     d="m 58.4535,28.734545 h -2.038 l -0.292,-2.3934 h -0.576 l -0.408,2.3934 h -2.041 l 1.293,-7.6386 h 4.399 c 0.126,-0.0081 0.252,0.018 0.364,0.0756 0.113,0.0576 0.207,0.1445 0.274,0.2515 0.143,0.2666 0.18,0.5766 0.106,0.8696 l -0.479,2.8596 c -0.04,0.2802 -0.151,0.5457 -0.322,0.7717 -0.148,0.1915 -0.355,0.3292 -0.589,0.3917 z m -2.179,-6.6946 -0.568,3.3473 h 1.268 l 0.566,-3.3473 z"
     fill="#ffffff"
     id="path117" />
  <path
     d="m 60.0745,23.569645 c 0.036,-0.2585 0.153,-0.4991 0.334,-0.6875 0.074,-0.0824 0.165,-0.1486 0.266,-0.1944 0.102,-0.0459 0.211,-0.0703 0.323,-0.0719 h 3.27 c 0.1,-0.0055 0.199,0.0165 0.287,0.0634 0.089,0.047 0.162,0.1172 0.213,0.2029 0.114,0.2103 0.147,0.4548 0.093,0.6875 l -0.589,3.4805 h -2.894 l -0.151,0.8422 h 2.898 l -0.142,0.8422 h -3.818 c -0.126,0.0079 -0.253,-0.0182 -0.366,-0.0758 -0.113,-0.0575 -0.208,-0.1443 -0.276,-0.2513 -0.146,-0.2652 -0.186,-0.5761 -0.111,-0.8696 z m 1.914,-0.1116 -0.469,2.7264 h 1.019 l 0.471,-2.7264 z"
     fill="#ffffff"
     id="path119" />
  <path
     d="m 69.6715,28.734645 h -1.879 l 0.903,-5.2765 h -1.018 l -0.903,5.2765 h -1.889 l 1.047,-6.1187 h 4.022 c 0.1,-0.0059 0.199,0.0159 0.287,0.0629 0.089,0.047 0.162,0.1174 0.213,0.2035 0.115,0.21 0.148,0.4545 0.094,0.6874 z"
     fill="#ffffff"
     id="path121" />
  <path
     d="m 71.8675,28.734545 c -0.126,0.0078 -0.252,-0.0185 -0.365,-0.076 -0.113,-0.0575 -0.209,-0.1442 -0.276,-0.251 -0.146,-0.2655 -0.186,-0.5764 -0.11,-0.8697 l 0.691,-4.0798 h -0.913 l 0.141,-0.8422 h 0.907 l 0.257,-1.5297 h 1.902 l -0.257,1.5297 h 0.923 l -0.142,0.8422 h -0.922 l -0.752,4.4343 h 0.921 l -0.142,0.8422 z"
     fill="#ffffff"
     id="path123" />
  <path
     d="m 76.5555,28.734545 h -1.533 l 0.214,-1.2751 h 1.533 z"
     fill="#ffffff"
     id="path125" />
  <path
     d="m 77.6355,23.569645 c 0.035,-0.2583 0.151,-0.499 0.331,-0.6875 0.075,-0.0822 0.166,-0.1483 0.267,-0.1941 0.102,-0.0458 0.211,-0.0704 0.322,-0.0722 h 3.261 c 0.1,-0.0055 0.199,0.0165 0.287,0.0634 0.089,0.047 0.162,0.1172 0.213,0.2029 0.116,0.2098 0.149,0.4549 0.093,0.6875 l -0.589,3.4805 h -2.882 l -0.149,0.8422 h 2.897 l -0.141,0.8422 h -3.828 c -0.127,0.0079 -0.253,-0.0183 -0.367,-0.0758 -0.113,-0.0576 -0.208,-0.1443 -0.277,-0.2513 -0.145,-0.2658 -0.184,-0.5763 -0.11,-0.8696 z m 1.914,-0.1116 -0.47,2.7263 h 1.019 l 0.481,-2.7263 z"
     fill="#ffffff"
     id="path127" />
  <path
     d="m 83.1845,23.569645 c 0.035,-0.2583 0.151,-0.499 0.332,-0.6875 0.074,-0.0822 0.165,-0.1483 0.266,-0.1941 0.102,-0.0458 0.211,-0.0704 0.323,-0.0722 h 3.26 c 0.1,-0.0055 0.199,0.0165 0.288,0.0634 0.088,0.047 0.161,0.1172 0.213,0.2029 0.113,0.2103 0.146,0.4548 0.092,0.6875 l -0.589,3.4805 h -2.884 l -0.151,0.8422 h 2.9 l -0.144,0.8422 h -3.828 c -0.126,0.0077 -0.252,-0.0185 -0.365,-0.076 -0.113,-0.0576 -0.209,-0.1443 -0.276,-0.2511 -0.148,-0.2649 -0.187,-0.5765 -0.11,-0.8696 z m 1.914,-0.1116 -0.471,2.7264 h 1.02 l 0.47,-2.7264 z"
     fill="#ffffff"
     id="path129" />
  <defs
     id="defs136">
    <radialGradient
       id="paint0_radial"
       cx="0"
       cy="0"
       r="1"
       gradientUnits="userSpaceOnUse"
       gradientTransform="matrix(93.1347,0,0,73.4137,-8.8608,-5.9968548)">
      <stop
         stop-color="#FFFF00"
         id="stop131" />
      <stop
         offset="1"
         stop-color="#FF0000"
         id="stop133" />
    </radialGradient>
  </defs>
</svg>
