<?xml version="1.0" encoding="UTF-8" standalone="no"?>
<svg
   xmlns:dc="http://purl.org/dc/elements/1.1/"
   xmlns:cc="http://creativecommons.org/ns#"
   xmlns:rdf="http://www.w3.org/1999/02/22-rdf-syntax-ns#"
   xmlns:svg="http://www.w3.org/2000/svg"
   xmlns="http://www.w3.org/2000/svg"
   width="87.983719"
   height="38.663795"
   viewBox="0 0 87.983719 38.663795"
   fill="none"
   version="1.1"
   id="svg156">
  <metadata
     id="metadata160">
    <rdf:RDF>
      <cc:Work
         rdf:about="">
        <dc:format>image/svg+xml</dc:format>
        <dc:type
           rdf:resource="http://purl.org/dc/dcmitype/StillImage" />
        <dc:title></dc:title>
      </cc:Work>
    </rdf:RDF>
  </metadata>
  <path
     style="color:#000000;font-style:normal;font-variant:normal;font-weight:normal;font-stretch:normal;font-size:medium;line-height:normal;font-family:sans-serif;font-variant-ligatures:normal;font-variant-position:normal;font-variant-caps:normal;font-variant-numeric:normal;font-variant-alternates:normal;font-variant-east-asian:normal;font-feature-settings:normal;font-variation-settings:normal;text-indent:0;text-align:start;text-decoration:none;text-decoration-line:none;text-decoration-style:solid;text-decoration-color:#000000;letter-spacing:normal;word-spacing:normal;text-transform:none;writing-mode:lr-tb;direction:ltr;text-orientation:mixed;dominant-baseline:auto;baseline-shift:baseline;text-anchor:start;white-space:normal;shape-padding:0;shape-margin:0;inline-size:0;clip-rule:evenodd;display:inline;overflow:visible;visibility:visible;opacity:1;isolation:auto;mix-blend-mode:normal;color-interpolation:sRGB;color-interpolation-filters:linearRGB;solid-color:#000000;solid-opacity:1;vector-effect:none;fill:url(#paint0_radial);fill-opacity:1;fill-rule:evenodd;stroke:none;stroke-width:1;stroke-linecap:butt;stroke-linejoin:miter;stroke-miterlimit:4;stroke-dasharray:none;stroke-dashoffset:0;stroke-opacity:1;color-rendering:auto;image-rendering:auto;shape-rendering:auto;text-rendering:auto;enable-background:accumulate;stop-color:#000000;stop-opacity:1"
     d="m 31.5429,36.490744 c -12.4354,-0.979299 -21.467,-4.718299 -22.6448,-10.2181 -0.4397,-2.034999 0.2513,-4.138499 1.8865,-6.173499 -1.9659,-0.2252 -3.9064,-0.6324 -5.7967,-1.2163 -2.8306,2.7224 -4.1615,5.5918 -3.5726,8.380899 1.9041,8.8843 22.6801,13.551702 46.4221,10.4316 5.664,-0.7346 11.26,-1.9241 16.732,-3.556899 -11.406,1.864599 -21.569,3.2514 -33.0265,2.350399 z M 46.8544,18.189445 c -9.5208,-1.7628 -22.1819,0.3526 -31.1232,-0.0509 -5.4256,-0.2351 -10.7256,-1.1106 -15.7312,-5.7623 2.6387,1.105 5.3674,1.9824 8.1561,2.6226 7.0255,-6.2048998 18.872,-11.4324998 32.8073,-13.7690998 16.697,-2.791 31.947,-0.67380001 40.17,4.7575 -7.752,-4.5401 -21.214,-6.22060001 -35.922,-3.7488 -13.5645,2.27 -24.9889,7.5309 -31.2567,13.6848998 2.3292,0.2169 4.6696,0.2902 7.0078,0.2193 9.0826,-0.2193 18.3169,-0.8578 25.8989,2.0507 z"
     id="path113" />
  <path
     style="color:#000000;font-style:normal;font-variant:normal;font-weight:normal;font-stretch:normal;font-size:medium;line-height:normal;font-family:sans-serif;font-variant-ligatures:normal;font-variant-position:normal;font-variant-caps:normal;font-variant-numeric:normal;font-variant-alternates:normal;font-variant-east-asian:normal;font-feature-settings:normal;font-variation-settings:normal;text-indent:0;text-align:start;text-decoration:none;text-decoration-line:none;text-decoration-style:solid;text-decoration-color:#000000;letter-spacing:normal;word-spacing:normal;text-transform:none;writing-mode:lr-tb;direction:ltr;text-orientation:mixed;dominant-baseline:auto;baseline-shift:baseline;text-anchor:start;white-space:normal;shape-padding:0;shape-margin:0;inline-size:0;clip-rule:evenodd;display:inline;overflow:visible;visibility:visible;opacity:1;isolation:auto;mix-blend-mode:normal;color-interpolation:sRGB;color-interpolation-filters:linearRGB;solid-color:#000000;solid-opacity:1;vector-effect:none;fill:#ff0000;fill-opacity:1;fill-rule:evenodd;stroke:none;stroke-width:1;stroke-linecap:butt;stroke-linejoin:miter;stroke-miterlimit:4;stroke-dasharray:none;stroke-dashoffset:0;stroke-opacity:1;color-rendering:auto;image-rendering:auto;shape-rendering:auto;text-rendering:auto;enable-background:accumulate;stop-color:#000000;stop-opacity:1"
     d="m 62.0084,14.321145 c -5.459,0.9597 -14.053,0.3917 -21.467,-1.1752 8.694,3.3453 15.9,3.4785 24.955,2.3699 7.683,-0.6052 18.059,-1.1947 21.482,4.64 -0.893,-8.945 -18.685,-6.3714 -22.595,-7.3311 -1.667,-0.4191 -6.319,-8.5238998 -18.941,-7.1782998 -9.369,0.993 -16.5633,5.9012998 -25.5615,8.8763998 6.9253,-0.2683 13.9174,-1.4787 23.4555,1.044 -6.4778,-3.1338 -12.5198,-2.4561 -16.3103,-2.4718 17.9273,-8.1380998 31.3073,-6.2538998 34.9803,1.2261 z"
     id="path115" />
  <path
     style="color:#000000;font-style:normal;font-variant:normal;font-weight:normal;font-stretch:normal;font-size:medium;line-height:normal;font-family:sans-serif;font-variant-ligatures:normal;font-variant-position:normal;font-variant-caps:normal;font-variant-numeric:normal;font-variant-alternates:normal;font-variant-east-asian:normal;font-feature-settings:normal;font-variation-settings:normal;text-indent:0;text-align:start;text-decoration:none;text-decoration-line:none;text-decoration-style:solid;text-decoration-color:#000000;letter-spacing:normal;word-spacing:normal;text-transform:none;writing-mode:lr-tb;direction:ltr;text-orientation:mixed;dominant-baseline:auto;baseline-shift:baseline;text-anchor:start;white-space:normal;shape-padding:0;shape-margin:0;inline-size:0;clip-rule:evenodd;display:inline;overflow:visible;visibility:visible;opacity:1;isolation:auto;mix-blend-mode:normal;color-interpolation:sRGB;color-interpolation-filters:linearRGB;solid-color:#000000;solid-opacity:1;vector-effect:none;fill:#c0c0c0;fill-opacity:1;fill-rule:evenodd;stroke:none;stroke-width:1;stroke-linecap:butt;stroke-linejoin:miter;stroke-miterlimit:4;stroke-dasharray:none;stroke-dashoffset:0;stroke-opacity:1;color-rendering:auto;image-rendering:auto;shape-rendering:auto;text-rendering:auto;enable-background:accumulate;stop-color:#000000;stop-opacity:1"
     d="m 32.1158,12.180245 c 4.1791,-1.3103 11.8286,-3.2766998 17.7946,-2.8732998 3.47,0.2351 7.8,1.1418998 9.098,3.9329998 -8.356,0.7736 -17.743,-2.6559 -26.8926,-1.0597 z"
     id="path117" />
  <path
     style="color:#000000;font-style:normal;font-variant:normal;font-weight:normal;font-stretch:normal;font-size:medium;line-height:normal;font-family:sans-serif;font-variant-ligatures:normal;font-variant-position:normal;font-variant-caps:normal;font-variant-numeric:normal;font-variant-alternates:normal;font-variant-east-asian:normal;font-feature-settings:normal;font-variation-settings:normal;text-indent:0;text-align:start;text-decoration:none;text-decoration-line:none;text-decoration-style:solid;text-decoration-color:#000000;letter-spacing:normal;word-spacing:normal;text-transform:none;writing-mode:lr-tb;direction:ltr;text-orientation:mixed;dominant-baseline:auto;baseline-shift:baseline;text-anchor:start;white-space:normal;shape-padding:0;shape-margin:0;inline-size:0;clip-rule:evenodd;display:inline;overflow:visible;visibility:visible;opacity:1;isolation:auto;mix-blend-mode:normal;color-interpolation:sRGB;color-interpolation-filters:linearRGB;solid-color:#000000;solid-opacity:1;vector-effect:none;fill:#ff0000;fill-opacity:1;fill-rule:evenodd;stroke:none;stroke-width:1;stroke-linecap:butt;stroke-linejoin:miter;stroke-miterlimit:4;stroke-dasharray:none;stroke-dashoffset:0;stroke-opacity:1;color-rendering:auto;image-rendering:auto;shape-rendering:auto;text-rendering:auto;enable-background:accumulate;stop-color:#000000;stop-opacity:1"
     d="m 62.3794,18.138445 c 8.34,-1.9586 19.209,-2.2524 22.275,1.5983 -3.117,-1.2124 -9.116,-2.9771 -22.275,-1.5983 z"
     id="path119" />
  <path
     style="color:#000000;font-style:normal;font-variant:normal;font-weight:normal;font-stretch:normal;font-size:medium;line-height:normal;font-family:sans-serif;font-variant-ligatures:normal;font-variant-position:normal;font-variant-caps:normal;font-variant-numeric:normal;font-variant-alternates:normal;font-variant-east-asian:normal;font-feature-settings:normal;font-variation-settings:normal;text-indent:0;text-align:start;text-decoration:none;text-decoration-line:none;text-decoration-style:solid;text-decoration-color:#000000;letter-spacing:normal;word-spacing:normal;text-transform:none;writing-mode:lr-tb;direction:ltr;text-orientation:mixed;dominant-baseline:auto;baseline-shift:baseline;text-anchor:start;white-space:normal;shape-padding:0;shape-margin:0;inline-size:0;clip-rule:nonzero;display:inline;overflow:visible;visibility:visible;opacity:1;isolation:auto;mix-blend-mode:normal;color-interpolation:sRGB;color-interpolation-filters:linearRGB;solid-color:#000000;solid-opacity:1;vector-effect:none;fill:#170101;fill-opacity:1;fill-rule:nonzero;stroke:none;stroke-width:1;stroke-linecap:butt;stroke-linejoin:miter;stroke-miterlimit:4;stroke-dasharray:none;stroke-dashoffset:0;stroke-opacity:1;color-rendering:auto;image-rendering:auto;shape-rendering:auto;text-rendering:auto;enable-background:accumulate;stop-color:#000000;stop-opacity:1"
     d="m 18.1729,28.734744 h -2.0376 l -0.2925,-2.393399 h -0.5771 l -0.4063,2.393399 h -2.0376 l 1.2936,-7.638699 h 4.3951 c 0.126,-0.0078 0.2518,0.0184 0.3641,0.076 0.1123,0.0576 0.2069,0.1443 0.2738,0.2511 0.1424,0.2667 0.1802,0.576699 0.1061,0.8697 l -0.479,2.8596 c -0.04,0.2806 -0.1516,0.5463 -0.3239,0.7717 -0.1451,0.19 -0.3484,0.3275 -0.5791,0.3917 z m -2.175,-6.694599 -0.5673,3.3473 h 1.2661 l 0.5673,-3.3473 z"
     id="path121" />
  <path
     style="color:#000000;font-style:normal;font-variant:normal;font-weight:normal;font-stretch:normal;font-size:medium;line-height:normal;font-family:sans-serif;font-variant-ligatures:normal;font-variant-position:normal;font-variant-caps:normal;font-variant-numeric:normal;font-variant-alternates:normal;font-variant-east-asian:normal;font-feature-settings:normal;font-variation-settings:normal;text-indent:0;text-align:start;text-decoration:none;text-decoration-line:none;text-decoration-style:solid;text-decoration-color:#000000;letter-spacing:normal;word-spacing:normal;text-transform:none;writing-mode:lr-tb;direction:ltr;text-orientation:mixed;dominant-baseline:auto;baseline-shift:baseline;text-anchor:start;white-space:normal;shape-padding:0;shape-margin:0;inline-size:0;clip-rule:nonzero;display:inline;overflow:visible;visibility:visible;opacity:1;isolation:auto;mix-blend-mode:normal;color-interpolation:sRGB;color-interpolation-filters:linearRGB;solid-color:#000000;solid-opacity:1;vector-effect:none;fill:#170101;fill-opacity:1;fill-rule:nonzero;stroke:none;stroke-width:1;stroke-linecap:butt;stroke-linejoin:miter;stroke-miterlimit:4;stroke-dasharray:none;stroke-dashoffset:0;stroke-opacity:1;color-rendering:auto;image-rendering:auto;shape-rendering:auto;text-rendering:auto;enable-background:accumulate;stop-color:#000000;stop-opacity:1"
     d="m 19.8926,28.734645 c -0.1268,0.0079 -0.2534,-0.0183 -0.3667,-0.0759 -0.1132,-0.0575 -0.2089,-0.1443 -0.2771,-0.251201 -0.145,-0.265799 -0.1843,-0.576299 -0.11,-0.8697 l 0.8853,-5.254899 c 0.0481,-0.3254 0.1939,-0.6286 0.4181,-0.8697 0.0944,-0.1032 0.2093,-0.1856 0.3374,-0.2419 0.1281,-0.0564 0.2666,-0.0854 0.4066,-0.0852 h 3.3763 l -0.161,0.9539 h -2.2947 l -0.4063,2.3934 h 1.7804 l -0.159,0.9539 h -1.7824 l -0.4063,2.3934 h 2.2947 l -0.159,0.9539 z"
     id="path123" />
  <path
     style="color:#000000;font-style:normal;font-variant:normal;font-weight:normal;font-stretch:normal;font-size:medium;line-height:normal;font-family:sans-serif;font-variant-ligatures:normal;font-variant-position:normal;font-variant-caps:normal;font-variant-numeric:normal;font-variant-alternates:normal;font-variant-east-asian:normal;font-feature-settings:normal;font-variation-settings:normal;text-indent:0;text-align:start;text-decoration:none;text-decoration-line:none;text-decoration-style:solid;text-decoration-color:#000000;letter-spacing:normal;word-spacing:normal;text-transform:none;writing-mode:lr-tb;direction:ltr;text-orientation:mixed;dominant-baseline:auto;baseline-shift:baseline;text-anchor:start;white-space:normal;shape-padding:0;shape-margin:0;inline-size:0;clip-rule:nonzero;display:inline;overflow:visible;visibility:visible;opacity:1;isolation:auto;mix-blend-mode:normal;color-interpolation:sRGB;color-interpolation-filters:linearRGB;solid-color:#000000;solid-opacity:1;vector-effect:none;fill:#170101;fill-opacity:1;fill-rule:nonzero;stroke:none;stroke-width:1;stroke-linecap:butt;stroke-linejoin:miter;stroke-miterlimit:4;stroke-dasharray:none;stroke-dashoffset:0;stroke-opacity:1;color-rendering:auto;image-rendering:auto;shape-rendering:auto;text-rendering:auto;enable-background:accumulate;stop-color:#000000;stop-opacity:1"
     d="m 29.4522,27.537945 c -0.0471,0.3253 -0.1922,0.628599 -0.4161,0.869599 -0.0945,0.1031 -0.2095,0.1853 -0.3375,0.2417 -0.1281,0.0563 -0.2665,0.0854 -0.4065,0.0854 H 23.897 l 1.2936,-7.6386 h 4.3951 c 0.1265,-0.0077 0.2528,0.0185 0.3657,0.076 0.1129,0.0576 0.2083,0.1443 0.2762,0.2511 0.1464,0.2653 0.1864,0.5761 0.1119,0.8696 z m -2.383,-5.4978 -0.9815,5.740699 h 1.2759 l 0.9815,-5.740699 z"
     id="path125" />
  <path
     style="color:#000000;font-style:normal;font-variant:normal;font-weight:normal;font-stretch:normal;font-size:medium;line-height:normal;font-family:sans-serif;font-variant-ligatures:normal;font-variant-position:normal;font-variant-caps:normal;font-variant-numeric:normal;font-variant-alternates:normal;font-variant-east-asian:normal;font-feature-settings:normal;font-variation-settings:normal;text-indent:0;text-align:start;text-decoration:none;text-decoration-line:none;text-decoration-style:solid;text-decoration-color:#000000;letter-spacing:normal;word-spacing:normal;text-transform:none;writing-mode:lr-tb;direction:ltr;text-orientation:mixed;dominant-baseline:auto;baseline-shift:baseline;text-anchor:start;white-space:normal;shape-padding:0;shape-margin:0;inline-size:0;clip-rule:nonzero;display:inline;overflow:visible;visibility:visible;opacity:1;isolation:auto;mix-blend-mode:normal;color-interpolation:sRGB;color-interpolation-filters:linearRGB;solid-color:#000000;solid-opacity:1;vector-effect:none;fill:#170101;fill-opacity:1;fill-rule:nonzero;stroke:none;stroke-width:1;stroke-linecap:butt;stroke-linejoin:miter;stroke-miterlimit:4;stroke-dasharray:none;stroke-dashoffset:0;stroke-opacity:1;color-rendering:auto;image-rendering:auto;shape-rendering:auto;text-rendering:auto;enable-background:accumulate;stop-color:#000000;stop-opacity:1"
     d="m 37.0723,28.734744 h -2.0337 l 0.4083,-2.3935 H 34.171 l -0.4083,2.3935 h -2.0415 l 1.0895,-6.451699 c 0.0475,-0.3252 0.1926,-0.6283 0.4161,-0.869701 0.0947,-0.102799 0.2096,-0.184999 0.3377,-0.241299 0.128,-0.0562 0.2664,-0.0855 0.4063,-0.0858 h 3.4391 c 0.1265,-0.0077 0.2528,0.0186 0.3657,0.0761 0.1129,0.0575 0.2083,0.1442 0.2762,0.250999 0.1466,0.265301 0.1866,0.576101 0.1116,0.869701 z m -2.1789,-6.694599 -0.5673,3.3473 h 1.2759 l 0.5673,-3.3473 z"
     id="path127" />
  <path
     style="color:#000000;font-style:normal;font-variant:normal;font-weight:normal;font-stretch:normal;font-size:medium;line-height:normal;font-family:sans-serif;font-variant-ligatures:normal;font-variant-position:normal;font-variant-caps:normal;font-variant-numeric:normal;font-variant-alternates:normal;font-variant-east-asian:normal;font-feature-settings:normal;font-variation-settings:normal;text-indent:0;text-align:start;text-decoration:none;text-decoration-line:none;text-decoration-style:solid;text-decoration-color:#000000;letter-spacing:normal;word-spacing:normal;text-transform:none;writing-mode:lr-tb;direction:ltr;text-orientation:mixed;dominant-baseline:auto;baseline-shift:baseline;text-anchor:start;white-space:normal;shape-padding:0;shape-margin:0;inline-size:0;clip-rule:nonzero;display:inline;overflow:visible;visibility:visible;opacity:1;isolation:auto;mix-blend-mode:normal;color-interpolation:sRGB;color-interpolation-filters:linearRGB;solid-color:#000000;solid-opacity:1;vector-effect:none;fill:#170101;fill-opacity:1;fill-rule:nonzero;stroke:none;stroke-width:1;stroke-linecap:butt;stroke-linejoin:miter;stroke-miterlimit:4;stroke-dasharray:none;stroke-dashoffset:0;stroke-opacity:1;color-rendering:auto;image-rendering:auto;shape-rendering:auto;text-rendering:auto;enable-background:accumulate;stop-color:#000000;stop-opacity:1"
     d="m 40.7494,22.615945 -0.903,5.276499 h 1.019 l 0.905,-5.276499 h 1.878 l -0.834,4.922 c -0.047,0.3253 -0.192,0.628599 -0.416,0.869699 -0.095,0.103 -0.21,0.185301 -0.338,0.2416 -0.128,0.0563 -0.266,0.0854 -0.406,0.0855 h -2.886 c -0.126,0.0081 -0.253,-0.0179 -0.366,-0.0755 -0.113,-0.0576 -0.208,-0.1445 -0.276,-0.2516 -0.1463,-0.2652 -0.1863,-0.576099 -0.1116,-0.869699 l 0.8426,-4.922 z"
     id="path129" />
  <path
     style="color:#000000;font-style:normal;font-variant:normal;font-weight:normal;font-stretch:normal;font-size:medium;line-height:normal;font-family:sans-serif;font-variant-ligatures:normal;font-variant-position:normal;font-variant-caps:normal;font-variant-numeric:normal;font-variant-alternates:normal;font-variant-east-asian:normal;font-feature-settings:normal;font-variation-settings:normal;text-indent:0;text-align:start;text-decoration:none;text-decoration-line:none;text-decoration-style:solid;text-decoration-color:#000000;letter-spacing:normal;word-spacing:normal;text-transform:none;writing-mode:lr-tb;direction:ltr;text-orientation:mixed;dominant-baseline:auto;baseline-shift:baseline;text-anchor:start;white-space:normal;shape-padding:0;shape-margin:0;inline-size:0;clip-rule:nonzero;display:inline;overflow:visible;visibility:visible;opacity:1;isolation:auto;mix-blend-mode:normal;color-interpolation:sRGB;color-interpolation-filters:linearRGB;solid-color:#000000;solid-opacity:1;vector-effect:none;fill:#170101;fill-opacity:1;fill-rule:nonzero;stroke:none;stroke-width:1;stroke-linecap:butt;stroke-linejoin:miter;stroke-miterlimit:4;stroke-dasharray:none;stroke-dashoffset:0;stroke-opacity:1;color-rendering:auto;image-rendering:auto;shape-rendering:auto;text-rendering:auto;enable-background:accumulate;stop-color:#000000;stop-opacity:1"
     d="m 44.9424,28.734645 c -0.127,0.0079 -0.254,-0.0183 -0.367,-0.0759 -0.113,-0.0575 -0.209,-0.1443 -0.277,-0.251201 -0.145,-0.265799 -0.185,-0.576299 -0.11,-0.8697 l 0.691,-4.0798 h -0.913 l 0.141,-0.842199 h 0.913 l 0.257,-1.5297 h 1.889 l -0.258,1.5297 h 0.921 l -0.141,0.842199 h -0.921 l -0.754,4.434301 h 0.921 l -0.141,0.8423 z"
     id="path131" />
  <path
     style="color:#000000;font-style:normal;font-variant:normal;font-weight:normal;font-stretch:normal;font-size:medium;line-height:normal;font-family:sans-serif;font-variant-ligatures:normal;font-variant-position:normal;font-variant-caps:normal;font-variant-numeric:normal;font-variant-alternates:normal;font-variant-east-asian:normal;font-feature-settings:normal;font-variation-settings:normal;text-indent:0;text-align:start;text-decoration:none;text-decoration-line:none;text-decoration-style:solid;text-decoration-color:#000000;letter-spacing:normal;word-spacing:normal;text-transform:none;writing-mode:lr-tb;direction:ltr;text-orientation:mixed;dominant-baseline:auto;baseline-shift:baseline;text-anchor:start;white-space:normal;shape-padding:0;shape-margin:0;inline-size:0;clip-rule:nonzero;display:inline;overflow:visible;visibility:visible;opacity:1;isolation:auto;mix-blend-mode:normal;color-interpolation:sRGB;color-interpolation-filters:linearRGB;solid-color:#000000;solid-opacity:1;vector-effect:none;fill:#170101;fill-opacity:1;fill-rule:nonzero;stroke:none;stroke-width:1;stroke-linecap:butt;stroke-linejoin:miter;stroke-miterlimit:4;stroke-dasharray:none;stroke-dashoffset:0;stroke-opacity:1;color-rendering:auto;image-rendering:auto;shape-rendering:auto;text-rendering:auto;enable-background:accumulate;stop-color:#000000;stop-opacity:1"
     d="m 48.4064,23.569645 c 0.035,-0.2583 0.151,-0.499001 0.332,-0.6875 0.074,-0.0823 0.165,-0.1484 0.266,-0.1943 0.102,-0.0458 0.211,-0.0703 0.322,-0.072 h 3.263 c 0.1,-0.0055 0.199,0.0165 0.287,0.0634 0.089,0.047 0.162,0.1172 0.214,0.2029 0.113,0.2103 0.146,0.4548 0.092,0.6875 l -0.664,3.968199 c -0.047,0.3255 -0.193,0.6287 -0.418,0.869601 -0.094,0.103199 -0.209,0.1856 -0.337,0.241999 -0.128,0.0563 -0.267,0.0853 -0.407,0.0851 h -2.872 c -0.126,0.0077 -0.252,-0.0185 -0.365,-0.076 -0.113,-0.0576 -0.209,-0.144301 -0.277,-0.2511 -0.147,-0.2649 -0.187,-0.5765 -0.109,-0.869601 z m 1.914,-0.111601 -0.756,4.434301 h 1.019 l 0.748,-4.434301 z"
     id="path133" />
  <path
     style="color:#000000;font-style:normal;font-variant:normal;font-weight:normal;font-stretch:normal;font-size:medium;line-height:normal;font-family:sans-serif;font-variant-ligatures:normal;font-variant-position:normal;font-variant-caps:normal;font-variant-numeric:normal;font-variant-alternates:normal;font-variant-east-asian:normal;font-feature-settings:normal;font-variation-settings:normal;text-indent:0;text-align:start;text-decoration:none;text-decoration-line:none;text-decoration-style:solid;text-decoration-color:#000000;letter-spacing:normal;word-spacing:normal;text-transform:none;writing-mode:lr-tb;direction:ltr;text-orientation:mixed;dominant-baseline:auto;baseline-shift:baseline;text-anchor:start;white-space:normal;shape-padding:0;shape-margin:0;inline-size:0;clip-rule:nonzero;display:inline;overflow:visible;visibility:visible;opacity:1;isolation:auto;mix-blend-mode:normal;color-interpolation:sRGB;color-interpolation-filters:linearRGB;solid-color:#000000;solid-opacity:1;vector-effect:none;fill:#170101;fill-opacity:1;fill-rule:nonzero;stroke:none;stroke-width:1;stroke-linecap:butt;stroke-linejoin:miter;stroke-miterlimit:4;stroke-dasharray:none;stroke-dashoffset:0;stroke-opacity:1;color-rendering:auto;image-rendering:auto;shape-rendering:auto;text-rendering:auto;enable-background:accumulate;stop-color:#000000;stop-opacity:1"
     d="m 58.4534,28.734545 h -2.038 l -0.292,-2.3934 h -0.575 l -0.409,2.3934 h -2.041 l 1.293,-7.6386 h 4.399 c 0.126,-0.0081 0.252,0.018 0.365,0.0756 0.112,0.0576 0.207,0.1445 0.273,0.251499 0.143,0.2666 0.18,0.576601 0.106,0.869601 l -0.479,2.8596 c -0.04,0.2802 -0.151,0.5457 -0.322,0.7717 -0.147,0.191499 -0.354,0.329199 -0.588,0.391699 z m -2.179,-6.6946 -0.567,3.347299 h 1.268 l 0.565,-3.347299 z"
     id="path135" />
  <path
     style="color:#000000;font-style:normal;font-variant:normal;font-weight:normal;font-stretch:normal;font-size:medium;line-height:normal;font-family:sans-serif;font-variant-ligatures:normal;font-variant-position:normal;font-variant-caps:normal;font-variant-numeric:normal;font-variant-alternates:normal;font-variant-east-asian:normal;font-feature-settings:normal;font-variation-settings:normal;text-indent:0;text-align:start;text-decoration:none;text-decoration-line:none;text-decoration-style:solid;text-decoration-color:#000000;letter-spacing:normal;word-spacing:normal;text-transform:none;writing-mode:lr-tb;direction:ltr;text-orientation:mixed;dominant-baseline:auto;baseline-shift:baseline;text-anchor:start;white-space:normal;shape-padding:0;shape-margin:0;inline-size:0;clip-rule:nonzero;display:inline;overflow:visible;visibility:visible;opacity:1;isolation:auto;mix-blend-mode:normal;color-interpolation:sRGB;color-interpolation-filters:linearRGB;solid-color:#000000;solid-opacity:1;vector-effect:none;fill:#170101;fill-opacity:1;fill-rule:nonzero;stroke:none;stroke-width:1;stroke-linecap:butt;stroke-linejoin:miter;stroke-miterlimit:4;stroke-dasharray:none;stroke-dashoffset:0;stroke-opacity:1;color-rendering:auto;image-rendering:auto;shape-rendering:auto;text-rendering:auto;enable-background:accumulate;stop-color:#000000;stop-opacity:1"
     d="m 60.0744,23.569645 c 0.036,-0.258501 0.153,-0.4991 0.334,-0.6875 0.074,-0.0824 0.165,-0.148601 0.266,-0.1944 0.102,-0.0459 0.211,-0.0703 0.323,-0.0719 h 3.27 c 0.1,-0.0055 0.199,0.0165 0.287,0.0634 0.089,0.047 0.162,0.1172 0.213,0.2029 0.114,0.2103 0.147,0.4548 0.093,0.6875 l -0.589,3.480499 h -2.894 l -0.151,0.842201 h 2.898 l -0.142,0.8422 h -3.818 c -0.126,0.0079 -0.253,-0.0182 -0.366,-0.0758 -0.113,-0.0575 -0.208,-0.1443 -0.276,-0.2513 -0.146,-0.2652 -0.186,-0.576101 -0.112,-0.869601 z m 1.914,-0.111601 -0.469,2.726401 h 1.018 l 0.472,-2.726401 z"
     id="path137" />
  <path
     style="color:#000000;font-style:normal;font-variant:normal;font-weight:normal;font-stretch:normal;font-size:medium;line-height:normal;font-family:sans-serif;font-variant-ligatures:normal;font-variant-position:normal;font-variant-caps:normal;font-variant-numeric:normal;font-variant-alternates:normal;font-variant-east-asian:normal;font-feature-settings:normal;font-variation-settings:normal;text-indent:0;text-align:start;text-decoration:none;text-decoration-line:none;text-decoration-style:solid;text-decoration-color:#000000;letter-spacing:normal;word-spacing:normal;text-transform:none;writing-mode:lr-tb;direction:ltr;text-orientation:mixed;dominant-baseline:auto;baseline-shift:baseline;text-anchor:start;white-space:normal;shape-padding:0;shape-margin:0;inline-size:0;clip-rule:nonzero;display:inline;overflow:visible;visibility:visible;opacity:1;isolation:auto;mix-blend-mode:normal;color-interpolation:sRGB;color-interpolation-filters:linearRGB;solid-color:#000000;solid-opacity:1;vector-effect:none;fill:#170101;fill-opacity:1;fill-rule:nonzero;stroke:none;stroke-width:1;stroke-linecap:butt;stroke-linejoin:miter;stroke-miterlimit:4;stroke-dasharray:none;stroke-dashoffset:0;stroke-opacity:1;color-rendering:auto;image-rendering:auto;shape-rendering:auto;text-rendering:auto;enable-background:accumulate;stop-color:#000000;stop-opacity:1"
     d="m 69.6714,28.734645 h -1.878 l 0.903,-5.2765 h -1.019 l -0.903,5.2765 h -1.889 l 1.047,-6.1187 h 4.022 c 0.1,-0.0059 0.199,0.0159 0.288,0.0629 0.088,0.047 0.162,0.117401 0.212,0.203501 0.115,0.209999 0.148,0.4545 0.095,0.6874 z"
     id="path139" />
  <path
     style="color:#000000;font-style:normal;font-variant:normal;font-weight:normal;font-stretch:normal;font-size:medium;line-height:normal;font-family:sans-serif;font-variant-ligatures:normal;font-variant-position:normal;font-variant-caps:normal;font-variant-numeric:normal;font-variant-alternates:normal;font-variant-east-asian:normal;font-feature-settings:normal;font-variation-settings:normal;text-indent:0;text-align:start;text-decoration:none;text-decoration-line:none;text-decoration-style:solid;text-decoration-color:#000000;letter-spacing:normal;word-spacing:normal;text-transform:none;writing-mode:lr-tb;direction:ltr;text-orientation:mixed;dominant-baseline:auto;baseline-shift:baseline;text-anchor:start;white-space:normal;shape-padding:0;shape-margin:0;inline-size:0;clip-rule:nonzero;display:inline;overflow:visible;visibility:visible;opacity:1;isolation:auto;mix-blend-mode:normal;color-interpolation:sRGB;color-interpolation-filters:linearRGB;solid-color:#000000;solid-opacity:1;vector-effect:none;fill:#170101;fill-opacity:1;fill-rule:nonzero;stroke:none;stroke-width:1;stroke-linecap:butt;stroke-linejoin:miter;stroke-miterlimit:4;stroke-dasharray:none;stroke-dashoffset:0;stroke-opacity:1;color-rendering:auto;image-rendering:auto;shape-rendering:auto;text-rendering:auto;enable-background:accumulate;stop-color:#000000;stop-opacity:1"
     d="m 71.8674,28.734545 c -0.126,0.0078 -0.253,-0.0185 -0.365,-0.076 -0.113,-0.0575 -0.209,-0.1442 -0.277,-0.251001 -0.146,-0.265499 -0.185,-0.5764 -0.11,-0.8697 l 0.691,-4.0798 h -0.912 l 0.141,-0.842199 h 0.907 l 0.257,-1.5297 h 1.902 l -0.257,1.5297 h 0.923 l -0.142,0.842199 h -0.922 l -0.752,4.434301 h 0.92 l -0.141,0.8422 z"
     id="path141" />
  <path
     style="color:#000000;font-style:normal;font-variant:normal;font-weight:normal;font-stretch:normal;font-size:medium;line-height:normal;font-family:sans-serif;font-variant-ligatures:normal;font-variant-position:normal;font-variant-caps:normal;font-variant-numeric:normal;font-variant-alternates:normal;font-variant-east-asian:normal;font-feature-settings:normal;font-variation-settings:normal;text-indent:0;text-align:start;text-decoration:none;text-decoration-line:none;text-decoration-style:solid;text-decoration-color:#000000;letter-spacing:normal;word-spacing:normal;text-transform:none;writing-mode:lr-tb;direction:ltr;text-orientation:mixed;dominant-baseline:auto;baseline-shift:baseline;text-anchor:start;white-space:normal;shape-padding:0;shape-margin:0;inline-size:0;clip-rule:nonzero;display:inline;overflow:visible;visibility:visible;opacity:1;isolation:auto;mix-blend-mode:normal;color-interpolation:sRGB;color-interpolation-filters:linearRGB;solid-color:#000000;solid-opacity:1;vector-effect:none;fill:#170101;fill-opacity:1;fill-rule:nonzero;stroke:none;stroke-width:1;stroke-linecap:butt;stroke-linejoin:miter;stroke-miterlimit:4;stroke-dasharray:none;stroke-dashoffset:0;stroke-opacity:1;color-rendering:auto;image-rendering:auto;shape-rendering:auto;text-rendering:auto;enable-background:accumulate;stop-color:#000000;stop-opacity:1"
     d="m 76.5554,28.734545 h -1.533 l 0.214,-1.2751 h 1.533 z"
     id="path143" />
  <path
     style="color:#000000;font-style:normal;font-variant:normal;font-weight:normal;font-stretch:normal;font-size:medium;line-height:normal;font-family:sans-serif;font-variant-ligatures:normal;font-variant-position:normal;font-variant-caps:normal;font-variant-numeric:normal;font-variant-alternates:normal;font-variant-east-asian:normal;font-feature-settings:normal;font-variation-settings:normal;text-indent:0;text-align:start;text-decoration:none;text-decoration-line:none;text-decoration-style:solid;text-decoration-color:#000000;letter-spacing:normal;word-spacing:normal;text-transform:none;writing-mode:lr-tb;direction:ltr;text-orientation:mixed;dominant-baseline:auto;baseline-shift:baseline;text-anchor:start;white-space:normal;shape-padding:0;shape-margin:0;inline-size:0;clip-rule:nonzero;display:inline;overflow:visible;visibility:visible;opacity:1;isolation:auto;mix-blend-mode:normal;color-interpolation:sRGB;color-interpolation-filters:linearRGB;solid-color:#000000;solid-opacity:1;vector-effect:none;fill:#170101;fill-opacity:1;fill-rule:nonzero;stroke:none;stroke-width:1;stroke-linecap:butt;stroke-linejoin:miter;stroke-miterlimit:4;stroke-dasharray:none;stroke-dashoffset:0;stroke-opacity:1;color-rendering:auto;image-rendering:auto;shape-rendering:auto;text-rendering:auto;enable-background:accumulate;stop-color:#000000;stop-opacity:1"
     d="m 77.6354,23.569645 c 0.035,-0.2583 0.151,-0.499001 0.332,-0.6875 0.074,-0.0822 0.165,-0.1483 0.266,-0.1941 0.102,-0.0458 0.211,-0.0704 0.323,-0.0722 h 3.26 c 0.1,-0.0055 0.199,0.0165 0.288,0.0634 0.088,0.047 0.161,0.1172 0.213,0.2029 0.115,0.2098 0.148,0.4549 0.092,0.6875 l -0.589,3.480499 h -2.882 l -0.149,0.842201 h 2.897 l -0.141,0.8422 h -3.828 c -0.126,0.0079 -0.253,-0.0183 -0.366,-0.0758 -0.114,-0.0576 -0.209,-0.1443 -0.277,-0.2513 -0.145,-0.2658 -0.185,-0.576301 -0.11,-0.869601 z m 1.914,-0.111601 -0.469,2.7263 h 1.018 l 0.481,-2.7263 z"
     id="path145" />
  <path
     style="color:#000000;font-style:normal;font-variant:normal;font-weight:normal;font-stretch:normal;font-size:medium;line-height:normal;font-family:sans-serif;font-variant-ligatures:normal;font-variant-position:normal;font-variant-caps:normal;font-variant-numeric:normal;font-variant-alternates:normal;font-variant-east-asian:normal;font-feature-settings:normal;font-variation-settings:normal;text-indent:0;text-align:start;text-decoration:none;text-decoration-line:none;text-decoration-style:solid;text-decoration-color:#000000;letter-spacing:normal;word-spacing:normal;text-transform:none;writing-mode:lr-tb;direction:ltr;text-orientation:mixed;dominant-baseline:auto;baseline-shift:baseline;text-anchor:start;white-space:normal;shape-padding:0;shape-margin:0;inline-size:0;clip-rule:nonzero;display:inline;overflow:visible;visibility:visible;opacity:1;isolation:auto;mix-blend-mode:normal;color-interpolation:sRGB;color-interpolation-filters:linearRGB;solid-color:#000000;solid-opacity:1;vector-effect:none;fill:#170101;fill-opacity:1;fill-rule:nonzero;stroke:none;stroke-width:1;stroke-linecap:butt;stroke-linejoin:miter;stroke-miterlimit:4;stroke-dasharray:none;stroke-dashoffset:0;stroke-opacity:1;color-rendering:auto;image-rendering:auto;shape-rendering:auto;text-rendering:auto;enable-background:accumulate;stop-color:#000000;stop-opacity:1"
     d="m 83.1844,23.569645 c 0.035,-0.2583 0.151,-0.499001 0.331,-0.6875 0.075,-0.0822 0.166,-0.1483 0.267,-0.1941 0.101,-0.0458 0.211,-0.0704 0.322,-0.0722 h 3.261 c 0.1,-0.0055 0.199,0.0165 0.287,0.0634 0.089,0.047 0.162,0.1172 0.213,0.2029 0.114,0.2103 0.147,0.4548 0.093,0.6875 l -0.589,3.480499 h -2.884 l -0.151,0.842201 h 2.899 l -0.143,0.8422 h -3.828 c -0.126,0.0077 -0.253,-0.0185 -0.366,-0.076 -0.112,-0.0576 -0.208,-0.144301 -0.276,-0.2511 -0.147,-0.2649 -0.187,-0.5765 -0.11,-0.869601 z m 1.914,-0.111601 -0.472,2.726401 h 1.021 l 0.469,-2.726401 z"
     id="path147" />
  <defs
     id="defs154">
    <radialGradient
       id="paint0_radial"
       cx="0"
       cy="0"
       r="1"
       gradientUnits="userSpaceOnUse"
       gradientTransform="matrix(93.1347,0,0,73.413699,-8.8608,-5.9968548)">
      <stop
         stop-color="#FFFF00"
         id="stop149" />
      <stop
         offset="1"
         stop-color="#FF0000"
         id="stop151" />
    </radialGradient>
  </defs>
</svg>
